<svg xmlns="http://www.w3.org/2000/svg" viewBox="0 0 693.529 692.615"><path style="fill:#FFF" d="M374.136 824.337c-27.72-.611-51.927-3.27-75.738-8.321-51.27-10.876-96.671-32.133-139.137-65.145-9.84-7.65-21.31-17.535-29.931-25.798-17.365-16.643-35.054-39.624-50.645-65.797-28.036-47.063-43.688-92.019-49.09-141-1.453-13.179-2.024-24.16-2.022-38.85.002-14.26.493-24.447 1.799-37.35 5.751-56.817 25.35-111.422 55.828-155.538 9.407-13.616 19.796-26.87 30.372-38.747 8.47-9.51 19.632-20.707 29.064-29.152 17.057-15.273 36.544-29.342 56.38-40.703 9.568-5.48 16.615-9.053 26.045-13.205 1.732-.762 5.748-2.535 8.925-3.94 6.579-2.91 9.747-4.208 14.55-5.963 10.837-3.962 28.883-9.383 42.375-12.73 34.235-8.492 67.432-11.702 101.775-9.841 58.74 3.182 113.647 20.718 162.772 51.983 30.415 19.358 59.383 44.64 82.652 72.136 40.092 47.376 65.993 102.916 77.435 166.05 1.912 10.548 2.381 15.064 3.087 29.7.627 12.98.627 30.633 0 43.125-3.295 65.753-21.907 123.1-56.763 174.9-16.201 24.077-37.256 48.776-56.34 66.093-21.954 19.92-47.672 37.424-75.669 51.499-18.66 9.38-37.25 16.808-54.525 21.785-14.554 4.193-29.717 7.407-58.898 12.484-10.474 1.822-9.574 1.73-20.452 2.115-4.32.153-20.11.292-23.85.21zm8.175-10.412c43.077-1.118 85.71-9.988 126.9-26.403 7.503-2.99 10.02-4.13 14.175-6.413 30.271-16.646 56.856-35.11 78.75-54.696 9.764-8.735 20.475-19.532 28.73-28.962 28.278-32.296 49.526-70.05 63.994-113.7 5.788-17.464 11.006-37.731 13.536-52.575 4.908-28.801 5.264-59.505 1.054-90.975-6.736-50.346-24.809-101.032-50.436-141.45-16.277-25.67-35.86-49.166-57.645-69.161-30.276-27.791-65.39-49.74-104.533-65.34-33.433-13.323-72.457-20.91-114.892-22.338-5.852-.197-24.3-.1-29.258.153-9.117.465-11.14.63-13.125 1.062-6.949 1.515-12.595 2.509-31.125 5.476-22.361 3.58-31.902 6.036-50.4 12.97-50.924 19.088-96.278 49.6-132.453 89.103-18.777 20.505-35.13 43.524-48.596 68.406-2.478 4.578-7.944 15.555-10.12 20.32-6.968 15.265-13.603 33.035-17.389 46.574-6.487 23.199-9.98 47.34-11.352 78.45-.26 5.897-.349 25.01-.152 32.475.324 12.257.513 15.283 1.279 20.55 7.684 52.81 23.773 98.47 48.917 138.831 27.432 44.033 65.915 81.68 116.316 113.792 7.881 5.022 6.987 4.537 15.644 8.472 32.85 14.934 62.527 24.548 92.73 30.041 22.513 4.095 46.457 5.935 69.45 5.338zm-7.875-16.498c-3.25-.163-5.674-.436-13.35-1.5-7.304-1.014-11.728-1.535-15.9-1.873-8.261-.67-13.545-1.238-19.615-2.112-10.863-1.563-13.193-2.242-28.76-8.381-9.186-3.623-12.41-4.518-21.9-6.083-6.565-1.082-9.279-1.97-11.765-3.848-.53-.4-1.273-.903-1.65-1.117-.916-.519-1.513-1.38-1.554-2.242l-.032-.67 122.7-.032c109.795-.03 122.669-.01 122.4.195-.426.324-4.059 2.154-5.925 2.985-1.846.822-14.275 6.05-17.821 7.496-7.71 3.143-16.009 5.853-22.03 7.194-4.87 1.085-8.888 1.682-18.724 2.785-12.93 1.45-14.765 1.692-23.4 3.09-15.543 2.517-23.015 3.482-30.6 3.952-3.623.225-9.298.3-12.075.161zm107.572-36.97c-.273-.756-1.267-1.535-2.416-1.896-.81-.254-1.753-.342-5.406-.508-5.22-.237-6.022-.405-7.182-1.502l-.687-.649.193-.725c.335-1.26 1.202-2.857 2.042-3.765 1.416-1.53 2.923-2.13 5.352-2.134 1.804-.002 3.237.244 7.414 1.273 3.987.982 5.705 1.274 7.499 1.275 3.171 0 5.152-1.168 6.443-3.803.774-1.578.798-1.868.208-2.47-.593-.604-1.047-.849-2.187-1.177-.733-.212-1.673-.253-5.97-.263l-5.1-.011-.04-.375c-.154-1.425-.522-2.034-1.545-2.555-.538-.275-.567-.325-.496-.856.685-5.098 2.718-9.145 6.504-12.951 3.491-3.51 7.141-5.42 11.146-5.835 4.133-.428 8.299 1.356 11.127 4.763.947 1.141.957 1.198.607 3.521-.443 2.94-1.393 5.017-4.202 9.189-1.153 1.713-1.876 2.93-1.876 3.16 0 .734.72 1.816 1.952 2.934.666.604 1.411 1.41 1.656 1.791.525.819.786 2.054.628 2.973l-.114.658-1.798.95c-2.965 1.563-5.992 2.802-14.999 6.138-2.145.794-4.92 1.877-6.166 2.407-1.246.53-2.295.963-2.332.963-.037 0-.151-.234-.255-.52zm46.412-3.096c-.881-3.76-1.569-9.178-1.881-14.835-.238-4.305-.196-16.225.09-25.206.268-8.455.358-22.986.162-26.169l-.12-1.95 18.195-.073c31.818-.127 51.743-.085 56.295.119 6.795.304 14.097.802 14.267.971.136.136-1.129 2.458-2.015 3.698-1.423 1.991-2.425 3.133-5.857 6.674-1.845 1.904-3.899 4.136-4.563 4.961l-1.21 1.5-28.06.075-28.06.075-.18.975c-.685 3.695-.72 4.561-.728 18.375-.01 13.735-.047 14.775-.682 18.525-.835 4.925-2.185 7.948-4.62 10.35-1.493 1.472-2.932 2.31-4.985 2.905-1.307.379-3.547.695-4.913.695h-.744l-.39-1.665zm-304.434 1.008c-2.827-.98-5.056-2.272-10.275-5.957-2.43-1.716-4.215-2.822-5.813-3.604l-1.012-.496v-6.236h1.1c1.4 0 3.127.44 4.448 1.135.568.299 1.898 1.18 2.955 1.957 3.105 2.286 5.28 3.2 7.637 3.206l.916.003 1.095-2.063c1.348-2.54 2.145-3.687 3.234-4.658.955-.85.961-.726-.107-2.307-1.383-2.047-2.973-3.593-7.711-7.498-1.068-.88-2.17-1.837-2.45-2.127l-.508-.528.43-1.233c.795-2.285 1.887-3.387 3.192-3.22.956.122 1.91.731 4.522 2.887 2.512 2.075 3.36 2.668 4.659 3.263 1.232.564 2.046.638 2.798.254 1.11-.566 1.594-1.534 2.354-4.712.568-2.374.994-3.383 1.72-4.072l.463-.44-1.236-.659c-.68-.363-2.755-1.662-4.611-2.887-2.806-1.852-5.692-3.509-6.568-3.77-.136-.042-.206-.499-.238-1.557-.04-1.335-.105-1.637-.592-2.773-.437-1.019-.547-1.468-.55-2.234l-.003-.96 1.071.1c4.178.389 7.812 1.916 13.498 5.674 1.681 1.111 3.468 2.266 3.972 2.567 1.116.668 4.263 2.2 4.522 2.201.274.002.247.19-.412 2.815-1.158 4.609-2.537 8.332-4.737 12.787-2.306 4.67-3.707 7.003-9.37 15.6-3.769 5.72-6.294 9.703-6.294 9.926 0 .234-.677.11-2.1-.383zm36.968-7.855c0-2.867-.038-8.756-.075-13.088-.077-8.915-.022-9.707.984-14.062l.078-.338h192.745v32.7H260.96l-.01-5.212zm302.535-15.439c-.132-.315-.378-1.215-.546-1.999-.34-1.586-.402-4.722-.257-13.125l.075-4.35 2.25.046c1.237.025 4.41-.009 7.05-.077 8.84-.225 12.254.146 15.112 1.646.699.366.863.523.863.826 0 1.215-1.091 2.746-2.445 3.432-.413.21-1.625.68-2.692 1.046-1.068.365-2.194.794-2.503.951-.583.297-1.825 1.399-5.742 5.092-3.651 3.441-6.12 5.191-8.968 6.357-2.008.822-1.92.816-2.197.155zm-377.376-6.507c-3.384-.378-6.209-1.755-8.481-4.135-1.336-1.4-2.32-2.924-3.25-5.038-.846-1.924-.95-2.072-2.916-4.113-1.864-1.936-1.865-1.941-1.84-4.93.028-3.232.662-5.607 3.185-11.926.906-2.269 1.804-4.578 1.997-5.133l.349-1.009 1.356-.75c6.716-3.722 14.656-5.47 20.753-4.573 1.814.267 4.326 1.053 5.628 1.76.81.44.95.598 1.688 1.891 1.364 2.39 2.316 3.324 3.762 3.69l.692.176.511 1.337c1.376 3.596 2.046 7.466 2.049 11.836.003 5.191-.995 9.733-3.116 14.184l-.54 1.134-1.915.841c-8.58 3.77-15.01 5.306-19.912 4.758zm8.623-7.557c6.633-1.417 11.042-5.71 12.006-11.69l.182-1.129-.68-1.32c-1.23-2.386-2.158-5.56-2.442-8.347-.12-1.183-.09-1.154-2.391-2.265-1.588-.767-3.679-1.456-5.556-1.83-1.915-.382-6.405-.384-8.139-.004-6.17 1.353-10.05 4.92-11.448 10.525-.393 1.579-.538 5.065-.293 7.068.165 1.35.239 1.57.824 2.457 2.44 3.7 6.735 6.149 11.937 6.806 1.073.136 4.904-.037 6-.272zm1.624-6.388c-5.35-.903-10.375-5.582-13.273-12.36l-.646-1.512.86-.4c1.883-.874 3.86-.919 5.557-.124 1.282.6 1.793 1.016 4.603 3.75 1.337 1.302 2.798 2.576 3.3 2.88 1.06.64 2.55 1.17 3.295 1.17h.53v6.558l-.696.095c-.892.122-2.63.094-3.53-.058zm316.676 5.152c-2.562-.413-5.37-.997-9.225-1.918-5.34-1.277-7.252-1.658-10.093-2.015l-2.03-.255-1.894-4.718c-10.184-25.373-21.734-45.86-35.45-62.88-.981-1.217-1.81-2.213-1.842-2.213-.032 0-.169.214-.303.474-.637 1.23.128 3.573 1.683 5.153.798.811 2.071 1.569 2.641 1.572.32.002.32.05.021.901-.384 1.092-.311 2.593.196 4.06.82 2.373 2.285 4.484 6.883 9.913 4.687 5.534 6.486 7.911 8.045 10.627 2.055 3.582 3.198 7.172 3.088 9.702l-.045 1.023-.75-.006c-1.04-.009-1.445-.331-2.172-1.73-.342-.656-.784-1.3-.983-1.43-.4-.262-1.057-.316-1.89-.156l-.545.105-.188-1.016c-.29-1.578-1.134-4.014-1.975-5.707-1.433-2.884-3.278-5.458-7.173-10.009-3.863-4.514-5.712-7.016-6.842-9.26-.776-1.542-1.52-3.905-1.719-5.47l-.176-1.38-1.105-.524c-3.558-1.69-5.662-4.089-9.29-10.591-2.01-3.603-3.074-5.283-4.334-6.844-2.241-2.779-5.25-4.59-8.584-5.171-.853-.149-.96-.207-1.031-.563-.612-3.043-1.71-4.854-4.604-7.59l-1.663-1.574.696-.744a10.24 10.24 0 0 0 2.295-3.868c.41-1.253.432-1.452.423-3.871-.01-2.265-.062-2.802-.482-4.8-.26-1.238-.56-2.534-.666-2.88l-.192-.63-.9.68c-1.847 1.398-4.137 2.298-5.856 2.303-1.64.005-3.563-.754-5.394-2.13-.578-.433-2.434-2.166-4.125-3.852-3.088-3.078-4.825-4.535-6.233-5.227l-.758-.372.063-1.325c.082-1.716-.245-3.655-1.113-6.607-.875-2.97-1.004-4.545-.53-6.436.193-.772.433-1.368.608-1.514.354-.293 2.278-.687 4.288-.878 2.477-.235 6.712.317 7.352.958.418.418 1.21 2.861 1.492 4.598.862 5.317-.71 10.06-3.94 11.88l-.644.364.743.32c1.91.821 3.847.77 5.721-.152 1.194-.587 3.465-2.797 4.6-4.475.932-1.379 2.45-3.999 2.45-4.23 0-.093-.374-.876-.831-1.74-3.682-6.957-9.511-12.01-19.517-16.917l-2.873-1.41.427-1.424c1.614-5.374 2.326-10.925 3.216-25.054.958-15.201 1.987-22.117 4.368-29.351.589-1.787.665-1.875 2.535-2.9a181.29 181.29 0 0 0 1.086-.597c.02-.013.438-1.623.93-3.578 1.202-4.774 2.65-11.285 4.658-20.949 3.438-16.54 5.406-24.57 7.957-32.475.885-2.74 2.811-7.95 3.799-10.273l.669-1.574 1.626-.725c2.18-.971 4.713-1.835 6.558-2.234 1.28-.277 2.008-.33 4.664-.336l3.147-.008.522-.578c1.173-1.299 3.481-2.775 5.634-3.602 1.787-.687 3.356-.995 5.062-.995 2.126 0 3.551.454 5.102 1.624.638.482.704.586.629.995-.116.623.18 4.635.471 6.38.756 4.548 2.153 8.91 5.501 17.176 4.016 9.916 5.25 14.089 5.689 19.236.447 5.259-.824 10.592-3.58 15.012-.661 1.062-.707 1.103-1.156 1.013-1.727-.345-3.868-2.049-4.798-3.818-.876-1.667-1.417-4.198-1.463-6.84-.016-.955-.051-.822-.375 1.422-.196 1.36-.763 6.086-1.261 10.5-1.347 11.938-2.078 16.74-3.377 22.168a84.338 84.338 0 0 1-3.65 11.48c-1.692 4.218-6.35 12.699-7.106 12.939-.147.046-.768.003-1.381-.096s-1.218-.14-1.344-.092c-.603.231-3.278 6.287-6.038 13.667-3.295 8.813-5.479 13.387-8.095 16.959l-.88 1.2.01 1.575c.01 1.292.112 1.992.579 3.9.708 2.893.7 3.96-.033 5.316l-.468.864.679 1.352c2.173 4.327 5.946 9.539 10.294 14.218 3.292 3.542 5.972 6.054 13.765 12.9 6.053 5.317 8.306 7.387 11.203 10.298 3.78 3.798 6.695 7.272 9.268 11.047 1.241 1.821 1.315 1.975 1.443 3 .656 5.274 2.3 9.593 6.657 17.499 2.587 4.693 3.805 7.269 4.754 10.056.547 1.606 1.215 4.21 1.107 4.317-.111.111-2.328-.493-3.409-.93-1.465-.592-2.516-1.301-3.796-2.562-2.03-2.001-3.015-3.868-5.025-9.525-2.326-6.546-3.91-8.936-7.247-10.941l-.57-.343.103.43c.056.236.439 1.475.85 2.754 1.954 6.083 5.33 12.442 10.435 19.65 2.737 3.866 5.523 7.47 12.4 16.05 3.804 4.743 7.696 9.637 8.648 10.875 5.757 7.48 10.352 14.474 13.47 20.503 1.323 2.556 2.709 5.537 2.709 5.825 0 .147-.204.158-.9.045zM429.202 540.46c4.692-3.46 7.986-9.096 9.872-16.895.731-3.02 1.4-7.44 1.602-10.571l.103-1.608 1.245-1.268c1.043-1.062 1.368-1.52 2.007-2.827.88-1.802 1.49-4.03 1.903-6.94.245-1.73.269-2.718.21-8.775-.036-3.753-.07-9.44-.075-12.635l-.01-5.811-.384-.134c-.21-.074-.781-.513-1.268-.977-.486-.463-.972-.843-1.079-.843-.154 0-.195.743-.196 3.563-.01 22.746-4.564 43.072-14.278 63.712-1.709 3.63-1.576 3.293-1.214 3.099.166-.089.868-.58 1.56-1.09zM292.536 715.517c-3.45-.424-7.516-1.34-11.625-2.616-2.066-.642-13.414-4.663-13.553-4.803-.14-.139.967-1.623 1.728-2.318 1.57-1.435 3.843-2.4 6.952-2.95 1.434-.254 2.512-.279 12.223-.279 10.54 0 10.666-.004 12.198-.342 1.976-.437 3.282-.962 4.066-1.633.341-.292 1.203-1.37 1.914-2.394.712-1.025 1.562-2.105 1.89-2.401.914-.826 2.082-1.297 3.409-1.374l1.133-.065.696-1.295c2.21-4.112 4.347-10.372 5.127-15.02.773-4.603.722-8.584-.153-12-.464-1.81-1.748-4.426-2.803-5.712l-.81-.986.201-1.259c.74-4.65.588-10.517-.406-15.713-1.238-6.465-3.323-12.354-8.537-24.106-5.433-12.244-7.495-18.19-8.617-24.848-.583-3.457-.734-6.02-.623-10.552.552-22.38.967-31.954 1.838-42.368l.244-2.92-.742-.681c-.985-.906-2.036-1.442-4.987-2.545-3.044-1.137-4.324-1.801-5.41-2.806-1.664-1.541-2.216-3.526-1.785-6.425l.169-1.132.694-.306c.884-.39 1.595-1.078 2.858-2.767 1.916-2.56 2.912-3.225 5.01-3.346l1.181-.069.676-.917c.91-1.235 1.726-2.9 3.13-6.393.743-1.849 1.318-3.062 1.564-3.3.213-.206 1.802-1.52 3.531-2.92 11.174-9.047 22.178-19.497 30.444-28.912l.75-.854 1.535-.31c3.465-.697 5.9-1.927 10.36-5.233 5.385-3.99 7.15-4.783 10.312-4.63 3.149.154 6.006 1.658 8.327 4.384 1.473 1.73 2.866 4.068 5.311 8.916 3.633 7.2 4.948 9.282 7.361 11.653l1.24 1.219-.204 1.956c-.951 9.095-4.384 15.587-11.818 22.354-7.297 6.642-13.1 10.636-21.7 14.932-4.428 2.213-5.744 2.808-15.36 6.946-12.342 5.311-18.484 8.254-18.834 9.023-.43.942-1.193 4.416-1.353 6.155-.43 4.678.842 9.253 3.783 13.596 1.762 2.604 3.57 4.662 8.859 10.088 6.453 6.618 8.579 9.516 9.336 12.721.554 2.342 1.313 6.619 2.01 11.316 1.472 9.932 2.257 14.15 3.319 17.845l.582 2.025-.429.453a4.984 4.984 0 0 0-.694.977c-.589 1.167-.689 1.955-.822 6.483-.072 2.451-.207 4.875-.3 5.386-.22 1.217-.718 2.531-.959 2.531-.406 0-2.008-1.199-2.97-2.222-1.92-2.043-2.92-4.23-4.85-10.594-1.712-5.644-2.533-7.572-4.08-9.582l-.712-.927-.132 1.725c-.146 1.918.05 5.354.43 7.575 1.017 5.924 3.133 11.146 8.962 22.121 1.248 2.35 2.763 5.302 3.366 6.56l1.098 2.29-.377 1.124c-.804 2.394-.832 5.925-.073 8.948.595 2.368 1.984 4.778 3.322 5.765l.397.292.25 4.05c.394 6.372.732 8.783 1.601 11.4.824 2.48 1.975 4.122 3.59 5.119l.89.55v1.083c0 1.73.391 3.54 1.44 6.673 1.324 3.948 1.562 4.982 1.665 7.21l.087 1.885-1.42.544c-4.464 1.708-9.18 2.192-16.621 1.706-10.989-.718-13.752-.382-18.967 2.31-6.976 3.601-7.675 3.905-10.583 4.599-1.402.334-1.964.38-5.1.425-1.939.028-4.031-.012-4.65-.088zm43.695-26.99c.076-.29.105-1.2.064-2.026-.119-2.407-1.114-4.986-3.069-7.95-.945-1.432-2.452-3.36-3.1-3.963l-.39-.364v4.282c0 5.562.255 7.117 1.46 8.867.73 1.063 2.377 1.765 4.005 1.709.884-.03.893-.035 1.03-.556zm-13.087-36.56c.2-.779.292-1.645.292-2.745 0-2.478-.22-3.5-2.168-10.097-.818-2.767-1.23-4.686-3.08-14.349-2.237-11.671-3.48-17.146-5.028-22.125-2.062-6.633-4.49-11.372-7.258-14.163-1.257-1.268-2.53-2.216-2.707-2.016-.367.415-.646 1.575-.646 2.68 0 1.527.32 2.383 2.035 5.455 1.647 2.952 2.057 4.114 2.162 6.14.048.928.01 1.977-.106 2.63l-.186 1.084 1.066 1.637c3.7 5.685 6.349 13.48 9.836 28.953 2.308 10.242 3.114 13.475 4.3 17.249l.611 1.948.293-.57c.161-.315.424-1.084.584-1.71zm-11.576-116.89c1.177-.475 1.681-.6 2.415-.6h.927l.247-.638c1.762-4.541 4.966-8.371 9.554-11.422 3.677-2.446 7.388-4.12 16.5-7.441 9.996-3.644 14.311-5.691 18.242-8.652 2.924-2.203 5.093-4.722 6.654-7.727.768-1.48 1.807-4.142 1.67-4.28-.111-.11-3.226.565-5.041 1.094-5.522 1.61-10.563 4.425-14.97 8.36-1.095.978-1.425 1.178-2.774 1.684-7.253 2.719-14.599 6.515-19.981 10.326-4.247 3.006-9.02 7.452-11.903 11.088-2.161 2.726-5.572 8.015-5.572 8.64 0 .11.438.167 1.272.167 1.135 0 1.43-.064 2.76-.6zm61.893 175.247c-5.605-.36-11.577-1.465-14.946-2.764l-1.193-.46.101-2.2c.174-3.763-.378-7.43-1.595-10.599-.711-1.853-2.167-4.536-4.18-7.704l-1.834-2.89.261-.831c1.112-3.535 4.985-5.865 11.46-6.896 2.443-.388 9.515-.392 12.526-.007 5.053.648 9.934 1.924 12.75 3.334 2.311 1.158 2.117.775 2.47 4.872.166 1.937.405 4.695.532 6.13.71 8.06.498 14.473-.599 18.118l-.233.776-1.01.226c-3.54.792-9.964 1.188-14.51.895zm-99.663-10.727c-.837-.451-1.94-3.588-2.275-6.468-.225-1.938-.096-6.978.234-9.103.327-2.105.918-4.74 1.41-6.291.364-1.147.444-1.277.848-1.377.741-.185 4.053-.564 6.52-.747 3-.223 13.367-.09 17.626.226 5.722.424 7.048.554 7.2.705.09.09.148 1.329.146 3.104 0 2.509-.053 3.166-.332 4.35a18.137 18.137 0 0 1-2.172 5.257c-1.028 1.666-3.626 4.303-5.367 5.446-3.562 2.339-7.817 3.84-13.125 4.632-2.804.418-10.094.599-10.713.266zm-128.442-2.968c-.964-.047-1.802-.134-1.861-.193-.262-.262.649-5.69 1.597-9.519.84-3.393 1.79-6.456 3.948-12.717a692 692 0 0 0 2.365-6.957l.506-1.558-.518-.392c-1.27-.961-1.657-1.45-1.657-2.091v-.61l-1.027.592c-2.347 1.353-5.038 2.296-11.498 4.03-4.702 1.262-7.431 2.175-9.494 3.175-1.282.622-1.632.732-2.064.651-.68-.127-1.148-.51-1.89-1.543-.334-.465-.816-1.03-1.07-1.255l-.464-.41.696-1.015c1.94-2.834 5.302-4.984 10.5-6.718 2.718-.907 5.944-1.733 11.736-3.004 4.392-.964 7.403-1.802 8.872-2.468.547-.248 1.181-.45 1.41-.45.56 0 1.105.67 1.415 1.738.343 1.18.803 1.606 1.66 1.537.64-.05.671-.033.751.398.135.73-.202 4.162-.602 6.13a65.244 65.244 0 0 1-.964 3.921c-1.333 4.712-1.702 6.583-1.897 9.6-.09 1.389.119 4.965.3 5.145.206.206 4.142-2.265 6.378-4.004.785-.61 2.743-2.202 4.352-3.535 4.868-4.037 7.337-5.766 10.275-7.198 2.3-1.121 2.175-1.11 2.66-.233.283.513.596.837 1.012 1.05.332.168.603.395.603.504 0 .953-1.574 4.212-2.892 5.99-2.407 3.247-5.348 5.797-13.008 11.28-4.011 2.871-4.688 3.387-7.508 5.72-1.118.925-2.53 2.025-3.137 2.443-2.397 1.651-4.981 2.187-9.485 1.966zm381.388-11.792c.405-3.993 2.48-6.727 6.085-8.016l1.32-.472.242-1.149c.496-2.352.582-3.382.498-5.949-.16-4.92-1.326-8.396-5.281-15.75-4.403-8.186-5.512-11.156-5.715-15.3-.148-3.019.561-6.125 2.098-9.184l.673-1.342 1.924-.765c3.78-1.504 7.007-2.3 10.589-2.61 4.49-.389 9.309.668 12.975 2.846.893.53 1.09.735 1.643 1.704 1.36 2.383 1.929 4.73 1.794 7.401-.253 5.026-3.278 9.71-7.51 11.628-3.038 1.378-5.967.757-8.358-1.77-1.079-1.14-1.91-2.35-2.27-3.302-.407-1.08.74-3.75 2.263-5.264 1.103-1.098 2.176-1.705 3.878-2.196l1.11-.32-.617-.616c-1.718-1.718-4.197-1.835-6.778-.32-1.676.984-3.684 2.856-5.575 5.196l-.862 1.067.474.939c.677 1.34 1.815 3.15 4.565 7.258 2.62 3.913 3.684 5.892 4.48 8.325.5 1.536.994 3.938.999 4.864 0 .846.148.91 1.225.553 1.479-.493 2.775-1.326 4.11-2.642 1.428-1.408 2.473-2.93 4.478-6.525 2.104-3.77 2.947-4.988 4.572-6.603 1.184-1.176 1.684-1.553 2.834-2.137.768-.39 1.496-.71 1.616-.71.292 0 .454-.463.743-2.13.74-4.261.49-8.557-.708-12.195-.983-2.987-2.027-4.781-7.197-12.375-.87-1.278-1.662-2.476-1.76-2.662l-.176-.338h55.962l-.563.906c-.31.498-1.218 1.797-2.019 2.887-4.241 5.776-5.153 7.142-6.276 9.404-1.509 3.038-2.023 5.318-1.895 8.403.11 2.66.651 4.723 1.874 7.146l.463.917 2.745 1.094c5.468 2.181 7.526 3.338 9.316 5.236 1.196 1.267 1.775 2.23 2.3 3.832.332 1.008.407 1.557.468 3.422.083 2.513-.024 2.39 1.36 1.559 3.869-2.324 7.45-7.948 8.667-13.606.37-1.72.374-5.051.01-6.525-.346-1.391-1.196-3.083-1.985-3.949l-.638-.7-.535.514c-.64.615-1.43 2.105-2.494 4.704-.932 2.277-1.613 3.38-2.684 4.342-1.247 1.12-1.543 1.156-3.928.473-1.755-.502-2.216-.576-3.635-.584-1.852-.01-1.594.15-2.968-1.847-1.775-2.582-2.694-5.21-2.709-7.753-.019-3.21 1.181-5.925 3.716-8.406 5.086-4.98 13.574-6.411 19.98-3.367 1.785.848 2.771 1.541 4.334 3.046 1.233 1.188 1.432 1.458 1.896 2.565 2.793 6.673 2.848 13.31.177 21.312-.629 1.884-1.122 3.135-3.897 9.896-3.268 7.963-4.312 12.205-4.34 17.63-.01 1.608.037 3.414.1 4.012l.113 1.087h-1.024c-1.323 0-3.558-.379-4.947-.84-4.473-1.482-7.612-4.632-9.848-9.885-1.254-2.944-2.03-5.62-3.303-11.4-.454-2.062-.86-3.89-.9-4.062-.048-.206-.272-.373-.655-.487-1.078-.323-4.137-1.925-5.725-2.997-4.475-3.021-8.007-7.318-10.938-13.304-.943-1.926-2.211-4.937-2.755-6.542-.065-.19-.394-.264-1.557-.344-1.675-.117-3.588.061-6.35.59-2.203.423-4.118.671-5.171.672h-.754l-.025 1.687c-.03 2.094-.39 3.551-1.744 7.087-.537 1.403-1.09 3.074-1.231 3.714l-.255 1.163-1.297.673c-1.717.892-3.026 1.896-4.5 3.454-2.86 3.02-4.719 6.657-7.89 15.432-2.148 5.944-3.4 8.909-4.714 11.157-.482.825-.726 1.099-1.037 1.162-2.979.608-4.41 1.146-9.184 3.453-2.105 1.018-4.467 2.095-5.25 2.394-1.646.63-4.002 1.23-5.383 1.371l-.96.098.104-1.035zm-19.333-31.367c-3.766-.142-9.455-1.317-10.911-2.254l-.411-.265-.112-6.075c-.176-9.523-.13-14.078.155-15.756.27-1.58.783-3.382 1.003-3.518.269-.166 6.232-1.108 8.142-1.286 2.455-.228 6.453-.106 7.684.236 2.74.761 4.157 2.264 4.173 4.424.01 1.55-.691 2.472-2.24 2.938-.923.278-3.678.273-6.583-.011-2.418-.237-4.273-.283-5.365-.133-.604.083-.708.155-.92.637-1.236 2.826-1.286 9.33-.096 12.497.274.73.411.896.95 1.155 1.193.573 2 .663 6.256.694 4.545.033 5.225.124 6.462.87.999.602 1.488 1.451 1.488 2.585 0 .728-.044.823-.62 1.343-1.078.975-3.183 1.664-5.522 1.807l-1.883.115c-.33.02-1.073.018-1.65-.003zm-376.422-6.424c-2.179-.611-3.757-2.403-4.457-5.06-.381-1.445-.32-3.66.138-5.074 1.404-4.33 5.087-5.643 9.64-3.434.66.32 1.538.806 1.95 1.08l.75.497.106 1.648c.057.907.176 2.14.262 2.742.323 2.24.054 4.914-.538 5.358-.154.115-.82.518-1.48.894-2.274 1.299-4.71 1.814-6.37 1.349zm96.447-17.622c-2.655-1.466-10.038-2.475-15.38-2.102-3.682.258-6.063.833-7.54 1.822-.355.238-.68.432-.722.432-.042 0-.33-.204-.642-.454-1.253-1.007-2.736-1.28-7.69-1.412-3.288-.088-4.97-.32-5.952-.821l-.603-.308.34-1.09c.81-2.596 1.957-4.964 3.58-7.39 1.68-2.514 3.125-4.214 7.773-9.15 4.921-5.224 6.881-7.779 8.65-11.271l.86-1.702h5.268l.267 1.687c.147.928.568 3.24.935 5.138 1.277 6.593 1.727 9.907 1.938 14.25l.102 2.1 2.196.014c2.418.015 4.742.327 6.765.906 1.526.437 3.3 1.085 3.584 1.309.16.125.191.568.144 1.99-.06 1.792-.074 1.855-.685 3.08-.55 1.105-2.262 3.288-2.563 3.27-.055-.003-.337-.137-.625-.297zm-16.35-10.253c0-.031-.139-.369-.307-.75-.232-.525-.343-1.238-.451-2.907-.196-3.03-.456-4.139-1.092-4.666-.18-.15-.273-.095-.525.31-.168.272-1.114 1.283-2.102 2.248-2.145 2.094-2.716 3.054-2.838 4.77l-.076 1.05h3.696c2.032 0 3.695-.025 3.695-.055zM99.26 624.677a27.65 27.65 0 0 1-.954-.137l-.503-.083.102-.823c.337-2.69 1.4-4.835 3.883-7.826 1.898-2.286 2.657-3.371 3.324-4.757.699-1.452 1.173-3.275 1.096-4.216-.042-.51-.14-.645-.78-1.073-.402-.269-1.212-.64-1.8-.825-1.005-.316-1.267-.332-4.443-.272-7.517.142-8.381.119-9.45-.255-1.737-.607-2.974-1.796-3.608-3.47-.797-2.099-.303-2.912 2.693-4.438 1.04-.53 2.117-1.153 2.394-1.385l.505-.424-.199-1.405-.199-1.406.54-.465c.856-.739 2.692-1.769 5.524-3.1 3.448-1.62 5.37-2.724 6.459-3.71.489-.442 1.621-1.76 2.517-2.93 2.68-3.502 4.245-4.87 6.291-5.503 1.687-.52 4.319-.281 5.901.537l.432.223-.468.934c-.68 1.353-1.981 3.315-3.062 4.613-1.973 2.369-4.283 4.399-10.27 9.026-1.444 1.115-3.221 2.55-3.95 3.19l-1.323 1.16.326.348c1.164 1.239 4.408 1.499 9.822.788.742-.098 2.748-.18 4.457-.184 3.512-.008 3.372-.053 3.777 1.2.569 1.76.55 3.845-.049 5.548-.631 1.797-1.26 2.702-5.195 7.494-1.015 1.236-2.465 3.45-2.465 3.766 0 .3.455.392 2.364.472 3.61.153 6.12-.5 14.608-3.802 2.257-.878 4.98-1.885 6.053-2.239 6.115-2.016 9.601-1.83 12.054.64.923.93 2.038 2.876 1.715 2.993-.384.14-1.155.739-1.432 1.112-.16.216-.334.756-.389 1.2l-.098.808-.975.033c-6.23.207-11.08 1.23-21.225 4.473-10.747 3.437-14.942 4.294-20.774 4.247-1.527-.012-2.979-.047-3.226-.077zm538.394-6.13c-1.663-.227-3.425-.68-4.373-1.126l-.65-.306-.104-9.632c-.115-10.62-.014-13.035.672-16.232.367-1.708.354-1.69 1.152-1.56 1.345.222 6.832.135 11.339-.18 7.298-.51 10.77-.247 13.137.997 1.889.992 3.055 2.657 3.265 4.66.095.903.182.857-2.145 1.12-1.59.178-3.092.127-7.937-.27-1.684-.137-4.714-.25-6.907-.256-4.334-.012-4.296-.02-5.09 1.02-1.104 1.449-1.373 3.633-1.127 9.15.1 2.217.133 4.469.075 5.004l-.104.973 4.401-.105c4.69-.112 5.909-.02 7.174.539 1.234.546 1.977 1.518 2.176 2.85.097.646.074.708-.398 1.108-1.148.97-3.842 1.88-6.676 2.25-2.07.272-5.872.27-7.88-.004zm-123.044-4.886a133.02 133.02 0 0 1-5.4-.422c-6.408-.635-9.81-.758-12.825-.466-.855.082-1.48.083-1.562.002-.23-.23-.296-3.946-.093-5.214.73-4.563 3.377-8.856 8.564-13.898l2.149-2.09.308.426c.17.235 1.263 1.66 2.429 3.17 1.166 1.507 2.424 3.2 2.795 3.762 1.503 2.273 2.515 4.834 2.865 7.246l.185 1.275 4.215.04 4.215.04-.08.88c-.083.919-.059.995.773 2.446.375.655.564 1.791.335 2.02-.22.22-2.57.656-3.924.729-.825.044-1.77.1-2.1.123-.33.023-1.612-.007-2.85-.068zm49.125-2.835c-8.442-.227-22.327-.888-23.982-1.142l-.506-.078.066-1.611c.109-2.643.735-3.668 3.958-6.477l1.512-1.318 1.338.2c2.677.4 5.487.549 10.263.545 5.39-.004 7.402-.093 18.9-.843 10.965-.715 13.494-.825 18.826-.825 5.012 0 7.487.14 10.8.613 8.069 1.153 12.847 4.026 14.564 8.757l.351.968-.483.078c-1.037.169-10.51.665-19.008.995-5.153.2-30.683.297-36.6.138zm-336.648-.157c-.961-.165-1.586-.782-2.802-2.764-.289-.47-.71-.965-.938-1.1-.227-.133-.412-.307-.412-.385 0-.194 1.12-1.666 1.926-2.53 1.446-1.552 3.836-3.067 5.724-3.63 1.388-.413 2.937-.55 4.304-.38.683.085 1.344.194 1.469.242.187.071.227.447.227 2.154v2.066l-.681.103c-1.526.228-2.519.928-3.744 2.639-2.076 2.897-3.444 3.865-5.073 3.585zm322.916-12.781c-.04-.104-.055-2.231-.033-4.726l.04-4.536.706.502c2.806 1.995 5.881 1.97 8.663-.073.457-.336 2.282-2.086 4.056-3.89 3.542-3.603 4.142-4.034 5.615-4.037.871-.002 1.91.45 2.154.937.092.185.188.99.212 1.787.054 1.77.285 2.12 1.564 2.368 2.934.57 2.938.57 3.288-.422.437-1.24.498-1.352.856-1.587.272-.178.468-.197.859-.085.279.08.527.125.551.101.097-.097-.26-1.887-.573-2.866-.689-2.16-2.132-3.651-4.17-4.308-1.264-.408-4.004-.435-5.781-.057-3.64.775-8.756 2.983-12.797 5.524-.943.593-.949.594-1.167.282-.275-.393-1.083-.624-2.186-.625-.8 0-.869-.03-1.157-.497-.645-1.044-.768-2.023-.768-6.126 0-2.396.057-3.895.149-3.952.41-.254 7.268-1.25 11.85-1.72 18.961-1.95 36.516-1.112 45.828 2.186 1.528.54 1.51.524 1.296 1.24-.397 1.326-1.629 2.46-3.254 2.997-1.748.576-3.099.658-8.994.545l-5.55-.107-1.275 1.456c-1.886 2.154-2.936 3.6-3.644 5.016-.549 1.1-.637 1.412-.674 2.4-.051 1.35.27 2.06 1.245 2.745.6.421 2.562 1.166 3.073 1.166.17 0 .44-.293.721-.787 1.237-2.164 3.511-4.216 5.954-5.373 1.898-.899 3.094-1.19 4.895-1.19 2.42 0 4.155.725 5.72 2.389 1.102 1.17 1.786 2.49 2.243 4.33.422 1.695.429 5.316.013 7.606l-.271 1.5-29.593.038c-23.723.03-29.606 0-29.664-.151zM173.36 587.173c-3.757-.487-7.351-2.064-10.212-4.482-.747-.631-.767-.67-1.089-2.116-.52-2.344-.65-3.562-.65-6.124 0-2.883.345-5.092 1.156-7.42.65-1.865.907-2.393 1.94-3.987 2.465-3.8 6.328-6.266 11.304-7.22.944-.18 2.2-.252 4.584-.263l3.284-.015.592-1.347c1.18-2.689 2.543-4.242 4.24-4.832.807-.28 3.002-.36 4.012-.146.73.154.791.391.773 2.956-.012 1.553-.09 2.304-.334 3.225-.303 1.136-.612 1.798-3.12 6.68l-1.042 2.03-.52-.114c-1.452-.316-4.825-.732-6.608-.816-6.063-.284-10.523 1.397-12.097 4.562-.624 1.254-.834 2.358-.76 3.999.052 1.18.124 1.478.547 2.268.268.5.932 1.412 1.477 2.025 1.502 1.693 2.191 2.683 2.757 3.96l.516 1.163 2.1-.076c3.019-.11 4.898-.577 7.086-1.757 2.244-1.21 4.248-3.08 6.446-6.014 1.29-1.72 1.333-1.76 2.013-1.859 1.449-.209 3.363.357 5.088 1.504 1.345.894 3.342 3.035 4.21 4.514.696 1.186 1.482 2.99 1.482 3.403 0 .156-.3.274-1.013.398-1.786.31-5.397 1.3-9.862 2.703-8.132 2.554-11.809 3.319-15.75 3.278-1.155-.012-2.303-.048-2.55-.08zm332.522-.753-2.577-.05-.93-1.01c-3.135-3.405-4.483-6.746-4.298-10.65.168-3.535 1.632-6.669 4.335-9.281 3.46-3.343 7.972-4.643 12.125-3.492 2.42.671 4.514 1.962 6.606 4.074l1.296 1.31.09 1.615c.05.889.26 2.763.469 4.165.688 4.635.665 6.565-.108 8.921-.407 1.24-1.237 2.065-2.88 2.861-2.64 1.28-6.398 1.689-14.127 1.537zm9.83-5.031c1.984-2.656 2.216-5.732.639-8.438-.677-1.16-1.427-1.943-2.636-2.751-1.952-1.307-4.095-1.78-5.926-1.312-1.797.461-3.006 1.514-3.895 3.392-.538 1.138-.568 1.713-.158 3.04.755 2.444 2.78 4.277 5.999 5.43 1.048.376 4.798 1.396 5.207 1.417.1.005.448-.345.77-.778zM76.31 576.111c-.083-.034-.739-.107-1.458-.162l-1.309-.099-.073-.474c-.512-3.29-.857-5.064-1.736-8.95-.57-2.516-1.18-5.384-1.356-6.374-.617-3.46-.544-9.525.113-9.525.41 0 2.213 1.04 3.01 1.737 2.676 2.341 4.191 5.868 5.73 13.338.255 1.237.524 2.394.598 2.57.112.27.345.35 1.456.508 1.9.27 3.933.112 6.798-.528 3.683-.823 3.48-.722 3.779-1.875.507-1.962.29-3.73-.948-7.715-1.045-3.364-1.322-4.704-1.326-6.407-.003-1.475.333-3.01.799-3.648.197-.269.29-.277 1.305-.12 1.542.239 3.065 1.023 4.024 2.072.959 1.05 1.97 3.06 2.645 5.26.288.94.767 2.5 1.063 3.47.297.97.765 2.252 1.04 2.85l.501 1.088h1.344c2.326 0 3.544-.528 5.886-2.552.696-.601 1.602-1.317 2.015-1.591.876-.583 2.309-1.107 3.023-1.107.276 0 .502-.051.501-.113 0-.337-.79-2.98-1.188-3.984-.255-.641-1.102-2.503-1.882-4.137-2.094-4.385-2.902-6.677-3.162-8.977l-.102-.905.842-.315c1.4-.524 2.159-.662 3.213-.586 2.435.176 4.593 2.201 6.167 5.787 1.166 2.657 1.906 5.449 3.33 12.555a666.393 666.393 0 0 0 1.128 5.567c.066.272-.058.37-.872.698-.521.21-3.446 1.44-6.498 2.735-10.561 4.478-14.886 6.097-20.614 7.716-2.471.699-6.496 1.541-9.011 1.887-1.577.217-8.42.456-8.775.306zm556.315-2.73c.136-2.172.931-3.91 2.476-5.412 1.068-1.038 2.12-1.684 5.436-3.34 3.545-1.772 4.743-2.523 5.79-3.632.944-.999 1.445-1.861 1.847-3.181.302-.992.304-1.048.05-1.33-.965-1.075-4.121-2.734-7.914-4.16-2.604-.979-5.445-2.314-6.614-3.109-1.164-.79-2.511-2.163-3.134-3.19-.462-.761-1.127-2.454-1.127-2.866 0-.282 3.992-.072 5.775.304 7.7 1.622 15.322 6.054 22.466 13.061l2.37 2.325-2.218 1.815c-6.944 5.681-12.093 9.03-17.518 11.391-1.85.805-6.16 2.318-7.26 2.547l-.508.106.083-1.33zm-344.073-.798c-.49-.199-1.754-1.673-2.28-2.659-.51-.956-.844-2.21-1.006-3.765l-.098-.942.72-.319c1.289-.57 2.187-.74 4.321-.821 3.163-.12 5.396.475 6.317 1.683l.39.51-.243 1.091c-.64 2.865-2.321 4.665-4.858 5.198-.917.193-2.812.207-3.264.024zm280.883-4.97c-7.508-.337-14.503-1.02-19.929-1.943a182.856 182.856 0 0 0-2.666-.444c-.034 0-.044-1.197-.021-2.66l.041-2.661 1.35-.256c14.172-2.68 38.883-3.128 56.1-1.016 2.505.307 7.854 1.163 8.057 1.288.065.04.118 1.218.118 2.618 0 3.006.348 2.627-2.928 3.192-5.368.925-11.603 1.53-19.572 1.896-3.698.17-16.652.161-20.55-.014zm-283.039-8.84a6.824 6.824 0 0 1-1.35-.48l-.686-.342-.093-1.8c-.192-3.696-.88-5.568-3.817-10.37-2.276-3.722-2.934-5.224-3.242-7.406-.179-1.263-.04-2.68.409-4.181l.242-.808 1.675.086c1.86.096 3.03.366 4.376 1.01 2.422 1.159 4.293 3.624 5.46 7.195.625 1.915.95 3.467 1.75 8.374.372 2.283.852 4.942 1.066 5.91.453 2.042.454 2.037-.827 2.532-.657.253-1.24.338-2.574.373-.949.025-2.024-.017-2.388-.094zm234.616-2.112c-2.904-.258-6.012-1.24-9.477-2.994-2.78-1.406-5.431-3.065-10.237-6.406a457.876 457.876 0 0 0-5.176-3.56c-.6-.396-1.087-.826-1.087-.959 0-.42.833-2.007 1.55-2.955.38-.503 1.74-1.912 3.02-3.13 2.625-2.493 3.826-3.957 3.828-4.662 0-.75-.418-2.13-.847-2.778-.222-.335-1.026-1.077-1.788-1.65-.762-.572-1.701-1.392-2.087-1.82-.673-.749-.697-.809-.606-1.463.261-1.867 1.304-3.637 3.212-5.452a18.139 18.139 0 0 1 7.308-4.246c1.738-.523 4.045-.588 5.308-.148 1.257.437 2.428 1.677 2.838 3.003.419 1.357.416 2.12-.01 2.348-1.188.636-5.104 1.675-7.067 1.876-1.218.124-1.24.165-1.224 2.311.013 1.808.334 2.672 1.655 4.461.534.723 1.14 1.662 1.35 2.086l.378.771-.68 1.356c-.375.746-1.35 2.424-2.166 3.729-1.52 2.43-2.427 4.09-2.418 4.43.01.22.635.774 2.77 2.44 3.222 2.516 6.795 4.716 10.875 6.698a356.07 356.07 0 0 1 3 1.468c.184.097.233.585.266 2.672.041 2.544.04 2.553-.3 2.644-.188.05-.442.083-.566.073l-1.622-.143zm72.573-.386c-.537-.024-3.068-.143-5.625-.265-7.937-.379-9.609-.408-14.325-.246-14.566.498-15.53.515-18.912.335-1.837-.097-4.088-.285-5.002-.417-3.443-.496-6.607-1.503-8.373-2.664l-.938-.617.01-1.05c.018-1.611.641-2.57 2.381-3.66l.742-.465 20.408-.006c11.225-.003 21.691-.066 23.259-.14 8.85-.419 12.637-.5 15.375-.332 3.38.208 5.993.634 8.152 1.33 1.724.554 4.107 1.69 4.53 2.156.239.265.227.312-.224.882-1.948 2.459-5.119 4.019-9.608 4.726-2.838.447-7.62.622-11.85.433zm-40.48-16.109c-1.344-.898-2.488-2.24-3.25-3.815-1.588-3.28-1.87-6.724-1.268-15.525.293-4.286.299-5.37.205-34.575-.121-37.768.094-50.967 1.055-64.575.21-2.987.381-3.526 1.336-4.217.541-.392.71-.433 1.816-.433h1.22l.837.863c1.95 2.01 3.028 4.384 3.692 8.136.34 1.924.335 8.804-.01 13.673-.227 3.177-.253 7.322-.25 39.825 0 29.885.042 36.953.222 40.103.584 10.217-.021 15.018-2.345 18.613-.59.914-2.02 2.537-2.235 2.537-.06 0-.522-.274-1.024-.61zm13.15.042c-2.213-2.33-3.44-5.121-3.945-8.981-.296-2.252-.282-6.662.033-10.476.22-2.676.256-8.266.332-51.839.062-35.647.13-48.896.252-49.05.092-.116.278-.548.413-.96.575-1.76 1.3-2.24 2.852-1.893 2.171.486 3.49 2.771 4.096 7.1.313 2.232.337 9.839.043 13.767-.26 3.495-.372 38.918-.156 50.025.09 4.703.235 12.05.32 16.325.297 14.884-.28 24.114-1.959 31.269-.366 1.563-1.484 5.103-1.641 5.2-.062.038-.35-.181-.64-.487zm11.31-.422c-2.623-2.906-3.78-6.965-3.78-13.258 0-1.22.108-3.963.24-6.097.214-3.426.23-7.122.147-31.63-.11-32.554.054-47.461.665-59.925.241-4.942.603-9.744.766-10.175.343-.908 1.398-1.675 2.305-1.675.71 0 1.102.278 2.08 1.476 1.514 1.857 2.486 4.11 3.049 7.074.368 1.936.37 9.595.01 14.954-.232 3.403-.258 7.276-.258 38.925 0 29.897.035 35.74.233 39.121.283 4.85.316 10.059.077 12.075-.468 3.942-1.546 6.788-3.385 8.943-1.14 1.334-1.115 1.332-2.145.192zm11.54.38c-2.731-1.823-4.246-4.96-4.682-9.69-.191-2.08-.106-6.266.194-9.5.125-1.355.177-12.217.187-39.225.013-36.683.052-40.467.533-51.75.233-5.463.591-10.732.75-11.029.078-.146.445-.532.816-.859.87-.766 1.967-1.115 3.314-1.056 1.204.052 1.052-.24 1.628 3.12.749 4.365 1.262 9.246 1.61 15.3.224 3.923.251 16.918.075 36.674-.107 12.05-.088 16.102.113 23.583.544 20.319.13 29.667-1.708 38.489-.503 2.417-1.644 6.553-1.808 6.553-.06 0-.52-.274-1.022-.61zm12.563-.052c-4.045-2.714-5.214-7.492-4.388-17.938.215-2.713.246-7.543.266-41.1.022-37.518.045-39.647.54-50.775.254-5.7.605-10.919.77-11.44.194-.616.784-1.328 1.34-1.615.566-.293 1.634-.278 2.093.029 3.063 2.05 4.526 4.627 5.264 9.276.283 1.787.234 7.479-.103 11.925-.276 3.633-.29 5.662-.29 40.35 0 30.654.036 37.128.224 40.275.273 4.565.286 10.16.027 12-.433 3.075-1.172 5.32-2.354 7.147-.74 1.142-1.963 2.528-2.232 2.528-.093 0-.613-.298-1.156-.662zM65.47 538.639c-2.905-5.332-5.08-13.207-6.139-22.238-.402-3.428-.366-12.151.062-14.82.169-1.055.355-1.966.412-2.024.058-.058.623-.106 1.256-.106.985 0 1.346.081 2.52.563.755.31 1.611.562 1.904.562.518 0 .536.02.654.713.153.896.153 8.45 0 10.484l-.115 1.521 2.518.113c2.953.132 12.39-.002 15.944-.227 7.245-.458 14.352-1.38 19.791-2.564 1.11-.242 2.03-.44 2.047-.44.016 0 .207.444.424.985.807 2.017.663 3.374-.699 6.583l-.788 1.858-1.05.08c-.578.044-3.152.154-5.72.245-5.794.204-9.13.41-19.807 1.222l-8.427.64-.104.532c-.145.744-.104 4.483.078 6.98.16 2.219.213 8.325.071 8.325-.046 0-.379-.074-.74-.165-.949-.239-1.631.022-2.137.817-.45.707-1.092 1.449-1.254 1.449-.06 0-.375-.49-.7-1.088zm592.646-4.383c-.519-.117-1.17-.354-1.448-.525-.663-.41-1.465-1.308-1.723-1.932-.197-.477-.235-.495-.82-.41-1.29.186-6.158.382-9.54.382-8.624.002-15.422-.8-18.581-2.19l-.807-.355.102-.637c.171-1.08 1.11-3.705 1.945-5.438.437-.907 1.62-3.033 2.628-4.725 2.284-3.833 3.5-6.276 4.283-8.604l.61-1.81.897-.285c1.166-.37 3.05-.391 3.974-.043.37.14 1.535.766 2.587 1.39l1.913 1.137v1.295c.01 3.272.985 5.452 4.822 10.745 1.076 1.485 2.1 2.947 2.273 3.247.375.65.377.65 4.977.881 3.613.181 5.038.36 6.456.81 1.805.573 2.956 1.553 3.441 2.93.35.99.29 1.296-.393 2.038-1.51 1.639-5.168 2.65-7.598 2.1zm-17.013-8.442c.059-.144.108-.971.108-1.838 0-1.326-.051-1.67-.323-2.175-.681-1.265-1.624-1.794-3.202-1.793-1.304 0-2.19.332-2.97 1.112-.85.85-1.128 1.572-1.2 3.115-.037.76-.026 1.486.022 1.612.076.197.605.23 3.773.23 3.368 0 3.693-.023 3.792-.263zm-457.535 7.062c-1.039-.54-4.322-1.596-6.417-2.064-.967-.216-4.116-.794-6.997-1.284-6.269-1.068-8.163-1.477-10.755-2.325-4.7-1.54-7.505-3.578-9.21-6.694l-.417-.764 1.97-1.317c2.322-1.554 3.866-2.745 8.22-6.345 6.292-5.203 8.84-7.02 12.049-8.592 1.853-.908 4.19-1.715 4.966-1.715.357 0 .359.007.359 1.718 0 2.09-.171 2.974-.852 4.408-.948 1.998-2.446 3.269-6.573 5.576-2.568 1.435-3.534 2.103-4.584 3.17-.777.789-1.791 2.433-1.791 2.903 0 .225.46.438 2.325 1.074 2.001.682 3.617 1.085 8.946 2.229 2.467.529 5.208 1.171 6.091 1.426 3.367.973 6.222 2.328 7.531 3.573.53.505.607.66.607 1.242 0 1.168-.491 1.57-2.443 1.998-1.43.314-1.894.67-2.011 1.546-.047.35-.128.634-.179.63-.05-.003-.427-.18-.835-.393zm338.455-27.951c-2.152-.163-3.34-.35-7.65-1.202-2.028-.401-4.492-.843-5.475-.983-1.946-.276-5.978-.36-8.326-.175l-1.44.114-.241-.564c-.882-2.054-.69-3.855.557-5.243 1.419-1.577 3.951-2.175 6.801-1.605.423.084.49.042.757-.487.497-.982.63-2.057.63-5.094v-2.926l-.806-.37c-.444-.202-1.405-.507-2.138-.677-3.328-.772-4.485-1.29-5.159-2.313-.836-1.268.344-3.183 2.635-4.277 1.808-.863 3.253-1.11 6.518-1.116 1.784-.003 3.364.072 4.05.193 3.312.584 6.155 1.71 7.514 2.976 1.006.938 1.194 1.385 1.024 2.449-.375 2.347-2.73 3.544-5.791 2.942-.727-.142-1.608-.386-1.959-.541l-.637-.282-.074.329c-.71 3.135-.64 5.314.233 7.11.76 1.564 2.291 2.584 4.715 3.14.952.217 1.836.275 4.275.276 1.691.001 3.649-.031 4.35-.072l1.275-.075.04 4.115c.022 2.263-.012 4.162-.075 4.22-.19.175-3.902.266-5.602.138zm-121.787-2.857c-.702-.153-1.516-.28-1.81-.285-.832-.01-.994-.236-1.176-1.643-.507-3.898.229-6.657 2.515-9.434.759-.922 4.98-4.7 5.18-4.638.36.111.97 2.422 1.132 4.272.252 2.911-.27 8.351-1.018 10.611-.243.734-.27.758-1.223 1.083-1.166.397-1.904.404-3.6.034zm-15.938-.249c-.591-.09-.74-.498-.75-2.048-.025-3.678 2.286-6.952 5.527-7.829.848-.23 1.121-.244 1.83-.095 2.348.492 3.48 2.405 3.48 5.879v1.768l-1.046.236c-.576.13-1.769.577-2.652.994-2.21 1.043-2.841 1.207-4.541 1.18-.79-.012-1.621-.05-1.848-.085zm-121.017-1.11c-3.428-4.112-5.577-9.653-6.368-16.416-.341-2.916-.43-2.63 1.045-3.348 2.74-1.333 4.927-1.865 7.653-1.864 3.485.002 5.767.921 8.1 3.264 2.125 2.136 3.368 4.726 3.91 8.149l.243 1.542-.62 1.044c-1.46 2.457-3.72 4.952-5.633 6.217-1.75 1.158-4.388 2.076-6.535 2.276l-.997.093-.798-.957zm377.079-1.66c-1.1-.783-3.446-3.281-4.55-4.845-.577-.819-1.946-2.902-3.042-4.629-1.096-1.727-2.47-3.775-3.052-4.55-1.126-1.498-3.025-3.484-3.909-4.088l-.533-.365 1.234-1.169c1.68-1.59 2.496-2.83 4.755-7.225 2.335-4.54 3.243-5.952 4.847-7.534 2.034-2.006 4.336-2.985 7.444-3.168l1.593-.093.702.884c.915 1.153 2.002 2.906 3.749 6.044 1.868 3.356 3.042 5.085 4.425 6.52 1.813 1.879 3.565 2.928 5.938 3.556 1.596.423 4.972.545 7.015.253.805-.115 1.497-.176 1.537-.136.04.04.073 1.444.073 3.12v3.047l-.379.095c-.208.052-1.743.06-3.412.018-2.478-.063-3.251-.137-4.22-.402-1.281-.35-2.422-.87-3.208-1.46l-.495-.371-.78.604c-1.756 1.36-3.158 3.031-5.54 6.601-3.686 5.527-5.414 7.46-8.065 9.02-1.333.785-1.395.793-2.127.273zm2.513-10.38c2.158-.677 3.187-2.17 3.45-5.005l.101-1.088h-9.612l-.093.563c-.141.852.157 2.081.772 3.177.303.542.758 1.38 1.01 1.861l.46.876 1.575-.072c.866-.04 1.918-.18 2.337-.312zm2.662-12.43c.14-.598.254-1.31.253-1.582 0-.702-.455-2.46-.71-2.754-.836-.97-3.615-1.272-5.15-.558-2.278 1.06-3.285 3.19-2.49 5.269l.273.712h7.57l.254-1.087zm-534.54 17.29c-5.267-2.385-9.675-5.04-14.046-8.457-1.768-1.381-4.891-4.097-5.781-5.026-.326-.34-.65-.62-.721-.62-.07 0-.546.282-1.057.627-2.314 1.56-4.02 3.158-9.369 8.776-1.506 1.582-3.106 3.19-3.554 3.574l-.816.697-.945-.788c-1.213-1.012-3.335-2.393-5.52-3.592-6.139-3.37-8.078-4.637-9.89-6.46-1.953-1.962-2.838-3.842-2.958-6.284-.04-.783-.013-1.728.058-2.1l.13-.675.789.043c1.125.061 2.901.666 4.296 1.462.66.376 2.347 1.594 3.75 2.706 3.519 2.79 5.66 3.845 8.259 4.064 1.015.086 1.125.063 2.032-.417 1.432-.758 2.975-2.388 4.75-5.02 2.137-3.164 3.25-4.17 5.273-4.771 1.35-.4 1.939-.321 4.034.538 3.581 1.47 11.069 5.413 13.977 7.361 3.81 2.554 7.705 6.69 9.095 9.66.934 1.997 1.023 3.52.279 4.79-.213.363-.401.656-.418.652a134.01 134.01 0 0 1-1.648-.74zm272.453-6.058c-.172-.278-.312-.545-.312-.594 0-.05-.14-.464-.312-.922-.228-.61-.433-.896-.767-1.068-.423-.219-.449-.279-.36-.831.252-1.577 1.407-2.982 3.787-4.606 2.336-1.594 3.291-2.885 3.457-4.674.097-1.043-.1-1.31-1.988-2.705-1.157-.855-1.451-1.159-1.789-1.849-.222-.454-.381-.949-.354-1.098.104-.562 4.54-3.191 8.11-4.807 2.236-1.012 6.097-2.301 8.158-2.724 5.851-1.202 10.78-.304 13.737 2.503l.555.526-.528.615c-.703.818-1.428 2.367-2.006 4.29-.97 3.223-1.401 4.45-1.906 5.424-1.06 2.044-2.767 3.221-4.91 3.383l-1.127.085-.041-2.684-.041-2.684-.949-.044a5.913 5.913 0 0 0-3.349.888c-1.38.878-2.374 2.18-4.908 6.432-3.413 5.724-6.019 7.64-10.394 7.647l-1.45.002-.313-.505zm-137.49-5.232c-.112-.258-.353-.378-1.018-.51-1.724-.34-1.935-.899-2.018-5.33l-.061-3.251.575-.163c.923-.261 2.838-.57 4.775-.772 1.884-.195 11.375-.286 11.55-.11.2.198-.387 2.47-.915 3.548-1.324 2.704-4.045 4.613-8.357 5.866-1.195.347-4.113 1.06-4.341 1.06-.023 0-.108-.152-.19-.338zm-72.447-4.03c-2.393-.168-6.476-.648-9.525-1.12-1.932-.299-12.368-2.192-15.823-2.87-.584-.115-.604-.14-.856-1.076-.644-2.383-.714-6.038-.198-10.217.2-1.622 1.302-8.596 1.51-9.562.072-.337.077-.338 3.22-.338h3.147v15.9h2.622c2.063 0 2.75-.051 3.227-.242 1.27-.508 1.59-1.55 1.77-5.758.112-2.591.182-3.184.443-3.774.425-.96.722-1.086 2.588-1.094 1.959-.008 2.796.313 3.865 1.486.997 1.092 1.31 2.026 1.31 3.907 0 1.505-.173 2.398-.71 3.67-.34.808-.25 1.28.3 1.557.669.337 1.485.396 3.17.23.874-.086 2.91-.158 4.526-.16l2.935-.004.752.732c.57.556.774.875.846 1.328.068.432.241.722.626 1.048l.532.451-.217.834c-.286 1.1-.869 2.642-1.54 4.077l-.543 1.162-3.088-.021c-1.7-.012-3.9-.078-4.89-.147zm55.281-4.22c-1.304-1.126-2.174-2.257-2.617-3.4l-.256-.661.46-.935c.722-1.468 2-2.455 4.097-3.166.596-.202 2.592-.668 4.434-1.036 4.66-.931 6.205-1.5 7.51-2.767.625-.606.683-.63 1.43-.567 1.066.088 1.906.537 3.277 1.752.642.57 1.367 1.117 1.613 1.22.257.106.446.296.446.45 0 .648-.654 2.288-1.203 3.02-1.553 2.066-3.597 2.997-9.16 4.172-4.623.976-6.787 1.686-8.03 2.633-.268.205-.545.372-.615.372-.07 0-.694-.489-1.386-1.087zm146.844-1.376a12.711 12.711 0 0 1-6.313-4.83c-1.823-2.65-3.167-6.929-3.88-12.357-.275-2.093-.755-6.874-.757-7.537 0-.24.224-.263 2.61-.263h2.61l.322 1.088c1.736 5.879 4.506 10.766 8.744 15.43l1.472 1.62-.764 1.523c-.87 1.734-2.012 4.478-2.165 5.202-.127.6-.456.622-1.88.124zm-112.302-1.352c-1.365-.427-2.359-1.325-2.997-2.71-.344-.746-.425-1.155-.473-2.4l-.058-1.5 1.086-.036c1.36-.045 2.266-.44 4.046-1.765 1.922-1.431 2.475-1.648 4.198-1.648.784 0 1.61.051 1.837.115.388.108.413.166.413.958 0 .918-.13.737 1.573 2.208.518.447.595.595.582 1.11-.023.882-.848 2.3-1.926 3.307-1.05.982-2.867 1.988-4.226 2.338-1.1.284-3.18.296-4.055.022zm244.002-3.767c-8.73-1.872-14.597-11.786-11.694-19.757 1.119-3.071 3.312-5.364 6.638-6.94 2.157-1.022 3.409-1.311 5.73-1.325 2.241-.014 3.516.27 5.37 1.198 2.17 1.087 4.234 2.913 5.655 5.005 3.128 4.607 3.98 10.853 2.228 16.325-.848 2.645-.778 2.551-2.622 3.51-1.785.927-3.689 1.614-5.486 1.98-1.429.292-4.467.293-5.82.004zm5.35-8.168c1.429-.15 2.874-.595 3.292-1.014.209-.208.233-.558.171-2.501-.088-2.8-.352-3.69-2.047-6.91l-1.185-2.249-.653-.121c-.36-.067-1.497-.093-2.528-.057-4.555.16-7.053 2.07-7.869 6.018-.367 1.777-.301 3.494.231 6.068l.168.808 1.072-.076c.59-.042 2.153-.03 3.473.028 3.7.162 4.395.162 5.875.006zm-5.651-1.391c-.898-.473-1.68-1.54-2.334-3.184-.295-.742-.728-1.69-.961-2.108l-.424-.758 1.298-.568c3.288-1.44 4.377-1.67 5.497-1.16.738.336 1.726 1.402 1.721 1.857-.01.539-.547 1.592-1.484 2.886-1.025 1.416-1.323 1.966-1.482 2.734-.106.512-.168.572-.637.612-.329.028-.768-.086-1.194-.311zm-421.8 6.79c-10-.976-18.564-8.7-20.95-18.897-.497-2.124-.634-5.74-.295-7.803.464-2.823.792-3.618 2.358-5.72.777-1.042 2.29-3.092 3.363-4.554 1.202-1.64 2.398-3.082 3.12-3.763 6.474-6.103 15.155-6.262 28.207-.518 1.945.856 1.984.883 2.77 1.9.865 1.12 2.221 3.752 2.735 5.306 2.603 7.88.745 18.251-4.654 25.984-1.229 1.76-3.921 4.475-5.465 5.512-3.251 2.182-6.766 2.984-11.188 2.553zm5.641-7.476c.733-.093.88-.2 3.423-2.487 1.462-1.315 3.232-3.036 3.934-3.825 2.164-2.435 3.899-5.309 4.632-7.674l.26-.839-.665-.665c-1.266-1.266-1.624-2.49-1.624-5.546 0-2.134-.175-3.225-.654-4.092-.36-.65-1.817-1.794-5.244-4.116-1.857-1.258-2.396-1.548-3.37-1.808-9.452-2.53-18.451 3.472-20.058 13.379-.563 3.471-.107 7.117 1.374 10.986.403 1.053.61 1.414.808 1.414.705 0 3.26 1.032 6.235 2.517 1.806.902 3.824 1.815 4.484 2.029 2.203.714 4.523.975 6.465.727zm138.36 7.078c-.667-.174-1.401-.193-3.825-.097-4.891.195-6.612.16-7.764-.158-2.27-.626-3.402-2.26-3.409-4.92l-.002-.85 2.513-.607c10.039-2.427 18.01-3.877 25.387-4.618 3.274-.328 10.832-.374 13.2-.08 1.532.191 5.256.886 5.373 1.003.032.032-.115.416-.326.855-.481.998-.763 2.61-.64 3.661.106.896.229.788-1.257 1.1-1.756.368-4.288.492-10.725.529-5.421.03-7.274.092-8.645.285-3.403.48-5.947 1.464-7.817 3.025-.557.464-1.013.907-1.013.983 0 .165.002.165-1.05-.11zm166.59-4.699c-2.333-2.495-4.46-7.382-5.106-11.739-.27-1.822-.306-5.123-.073-6.797a21.74 21.74 0 0 1 .53-2.449c1.42-4.957 4.625-8.058 9.417-9.114 1.34-.296 4.378-.33 6.128-.068l1.31.196.146.547c.633 2.393.86 5.33.635 8.244-.595 7.704-3.266 14.49-7.302 18.557-1.277 1.286-2.82 2.393-4.172 2.99l-.827.366-.685-.733zm-116.57-.883c-3.183-.783-6.35-3.272-7.716-6.066-1.456-2.974-1.366-4.962.291-6.457.83-.748 1.473-1.023 3.905-1.67 2.397-.639 2.92-.86 4.42-1.872 2.709-1.828 4.99-3.867 8.727-7.804 4.729-4.98 7.839-7.723 10.107-8.916 1.439-.757 2.892-1.186 6.39-1.886 4.041-.809 5.385-1.252 7.856-2.591 4.018-2.179 5.897-2.782 9.075-2.912 1.866-.077 3.427.06 4.777.421l.577.154-.102 1.228c-.328 3.922-1.539 6.659-4.001 9.044-2.465 2.386-5.642 3.96-11.451 5.672-9.016 2.655-9.821 2.93-12.512 4.254-1.593.784-1.682.85-1.284.957.974.26 4.92.464 7.346.379 12.836-.452 23.412-5.73 26.629-13.29.91-2.14 1.095-3.13 1.106-5.939.01-2.286-.03-2.713-.39-4.131-.22-.87-.564-2.018-.765-2.552l-.365-.97.588-1.498c2.075-5.285 1.898-8.357-.56-9.708-1.018-.56-1.297-.53-1.926.205-.683.798-1.043 1.915-1.516 4.704-.458 2.699-.823 3.872-1.441 4.62l-.462.561-3.237-.04-3.236-.04-.48-.94c-.527-1.033-.853-2.002-1.635-4.858-.528-1.93-1.17-3.533-1.729-4.318l-.31-.435.395-1.25c.218-.687 1-2.458 1.74-3.935.738-1.477 1.532-3.266 1.763-3.975l.42-1.29.719-.27c1.225-.458 4.567-1.29 6.142-1.527 2.07-.312 4.632-.29 6.3.055 6.087 1.259 9.467 6.483 10.636 16.443.384 3.276.532 6.415.687 14.625.15 7.94.32 11.683.66 14.52.102.851.147 1.569.1 1.596-.045.027-1.414.495-3.04 1.04-3.736 1.253-8.525 3.182-15.115 6.089-7.234 3.19-9.642 4.198-13.268 5.55-8.197 3.057-15.58 4.707-23.485 5.25-2.135.146-2.18.156-2.462.564-.577.836-2.15 2.226-2.971 2.627-1.816.886-3.848 1.086-5.897.582zm101.63-.923c-.867-.154-2.014-.368-2.55-.475l-.975-.196-.108-1.186c-.198-2.191-.866-4.98-1.824-7.62-.66-1.821-1.032-2.696-2.81-6.61-.816-1.797-1.483-3.393-1.483-3.546 0-.328 1.09-1.832 1.818-2.51 1.975-1.838 4.904-2.787 8.681-2.813l2.024-.014.187.75c.308 1.233.613 3.794 1.012 8.498.588 6.918 1.17 9.737 2.498 12.105.447.797.448.805.146 1.017-.17.12-.344.458-.394.771-.186 1.162-.203 1.188-.933 1.5-.834.358-2.237.639-3.104.621-.336-.007-1.32-.138-2.185-.292zm259.2-2.477c-5.674-1.21-9.413-6.16-9.709-12.855-.22-4.983 1.35-9.423 4.441-12.565 2.396-2.434 5.401-3.665 8.943-3.66 1.94.001 3.379.229 5.29.836l1.39.441.677 1.45c.853 1.825 2.488 4.268 4.319 6.452l1.418 1.693-1.642 4.907c-1.77 5.284-3.052 8.656-4.065 10.682l-.637 1.275-1.2.428c-2.055.731-4.412 1.146-6.45 1.134-.99-.006-2.24-.104-2.775-.218zm4.125-6.311c4.548-1.1 7.425-5.08 7.425-10.274v-1.768l-.957-.683c-1.941-1.385-4.092-2.03-6.768-2.03-3.245 0-5.633.911-7.658 2.922-1.824 1.813-2.612 3.711-2.614 6.3v1.2l.754 1.004c.744.99 2.106 2.147 3.14 2.665 1.96.984 4.366 1.223 6.678.664zm-413.934 2.6c-1.44-.491-2.596-1.238-3.887-2.508-2.036-2.003-3.483-4.452-6.603-11.175-1.706-3.674-2.821-5.767-3.935-7.382-1.712-2.481-3.746-4.177-5.804-4.839l-1.031-.331-.1-.849c-.277-2.328-1.171-5.214-2.333-7.524-1.423-2.828-2.997-4.953-6.863-9.26-3.319-3.7-4.263-4.854-5.582-6.829-2.314-3.464-3.656-6.985-4.102-10.76l-.08-.676 1.452-.79c4.19-2.282 7.52-5.617 9.583-9.595l.719-1.386 1.157-.002c1.776-.003 2.488.331 4.321 2.026 1.735 1.605 2.658 2.127 4.01 2.267l.937.098v5.24l1.15 1.221c5.957 6.327 10.89 13.808 19.995 30.321 6.757 12.254 10.493 18.371 14.518 23.764l1.407 1.886-1.015.95c-1.406 1.314-3.532 2.693-5.914 3.833-4.882 2.337-9.368 3.196-12 2.3zm182.434-.867c-.275-.06-.687-.287-.916-.507-.816-.782-.923-1.96-.52-5.727.137-1.282.2-2.669.147-3.26l-.091-1.028.925-.99c1.879-2.007 3.291-4.661 3.807-7.154.322-1.558.33-4.405.014-6.085-.825-4.403-2.46-7.92-7.944-17.09-4.514-7.548-6.526-12.4-6.368-15.352l.046-.855 2.193 1.766c1.207.972 4.332 3.584 6.945 5.805 6.23 5.295 9.8 8.162 12.651 10.155.323.226.36.46.736 4.647.514 5.72.578 12.096.145 14.46-.795 4.337-2.302 6.863-4.845 8.124l-1.075.534-.314 1.296c-.173.712-.52 2.41-.772 3.77-.728 3.94-1.33 5.425-2.702 6.658-.861.775-1.372.98-2.062.833zm100.025-17.257c-4.088-.325-9.927-1.192-15.269-2.268l-2.444-.492-.106-3.524c-.152-5.024-.105-7.128.183-8.262.521-2.053 1.688-3.147 3.476-3.261a11.452 11.452 0 0 1 1.77.04l.812.102.062 3.553c.07 3.943.175 4.487 1.053 5.392.523.54 1.202.784 2.18.786 1.547.002 2.216-.69 2.953-3.05.782-2.503 1.485-3.404 2.653-3.396 1.32.009 2.651 1.22 3.429 3.119 1.482 3.623 1.998 4.238 3.796 4.522.883.14 2.666-.067 3.269-.378.579-.3.935-1.336.943-2.746 0-.63-.053-2.377-.126-3.883l-.132-2.737h6.423v2.212c0 1.217.03 3.968.065 6.113.068 4.235-.062 5.375-.778 6.816l-.34.684-1.234.246c-.68.136-2 .322-2.933.413-1.922.187-7.34.187-9.707-.002zm-69-6.31c-2.9-1.092-6.576-4.896-8.964-9.274-.865-1.585-1.911-4.208-2.344-5.873-1.75-6.738.236-11.334 5.533-12.8 1.135-.315 5.423-.495 5.885-.248.17.092.816 1.096 1.434 2.232 4.565 8.393 6.743 14.25 6.958 18.714.133 2.767-.41 4.44-1.892 5.827-1.684 1.575-4.561 2.194-6.61 1.422zm-70.943-.576c-8.699-.912-11.893-5.196-9.516-12.765l.359-1.142.696-.095c2.06-.282 3.509-.045 6.23 1.02 2.5.978 3.628.93 5.074-.216l.575-.455.105.49c.271 1.26.772 1.69 2.664 2.293 1.268.403 1.982.728 2.393 1.089.235.206.262.574.26 3.544 0 3.473-.138 4.557-.689 5.5-.174.298-.463.541-.728.612-.686.183-6.011.273-7.423.125zm24.293-3.242c-3.427-.65-6.231-2.075-8.232-4.182-3.275-3.447-3.236-7.357.114-11.495 1.137-1.405 1.374-1.522 3.59-1.775a10.887 10.887 0 0 1 4.682.523c2.355.801 4.018 2.02 7.87 5.776 1.568 1.527 3.115 3.003 3.437 3.279l.587.502-.324 1.006c-.645 2.001-2.178 3.975-3.904 5.023-.466.284-1.388.7-2.047.925-1.044.356-1.468.414-3.298.45-1.155.021-2.27.007-2.475-.032zm262.575-6.735c-.495-.112-1.812-.325-2.925-.474-1.844-.247-3.158-.267-14.663-.226-9.045.033-12.637 0-12.637-.117 0-.29 1.206-5.872 1.657-7.671 1.141-4.55 2.533-7.34 4.678-9.374 1.814-1.721 3.941-2.633 6.759-2.898 1.613-.152 1.749-.112 1.753.517 0 .624.644 2.593 1.272 3.922.773 1.636 1.469 2.728 3.507 5.504.84 1.143 1.743 2.441 2.008 2.885l.483.806 1.954-.092c4.094-.192 6.442.748 7.422 2.97.356.808.523 2.56.349 3.652-.14.874-.236.909-1.617.596zm-19.072-7.344c.566-.12 1.24-.34 1.5-.49.577-.332.996-1.121.996-1.874 0-.53-.027-.563-.468-.563-.258 0-.992-.236-1.631-.525-.64-.288-1.36-.525-1.602-.525-.4 0-.487.103-.988 1.163-.625 1.322-.777 1.942-.635 2.587.096.436.125.45.95.448.467-.002 1.313-.1 1.878-.22zm-530.91 6.52c-6.301-.304-13.208-1.452-19.426-3.227-4.745-1.355-9.141-2.913-18.292-6.481a1156.94 1156.94 0 0 0-4.476-1.739c-.247-.09-.213-.177.315-.813 1-1.203 2.109-2.833 4.056-5.962 3.224-5.177 4.658-7.12 6.628-8.977 1.865-1.76 3.773-2.829 5.947-3.333.988-.229 3.891-.311 4.61-.131.633.159 1.35 2.286 2.198 6.516.483 2.414.614 2.979.999 4.33l.229.804.589-.094c.324-.052 1.032-.272 1.573-.488 1.795-.719 3.133-1.74 5.846-4.466 3.356-3.37 4.473-4.104 6.73-4.424 2.852-.404 5.357.74 8.489 3.878 5.909 5.918 10.346 16.165 9.3 21.48-.204 1.036-.58 2.08-.749 2.08-.25 0-2.795-1.807-3.952-2.806-2.184-1.887-4.258-4.423-7.64-9.343a185.951 185.951 0 0 0-2.943-4.163l-1.138-1.537h-.948c-1.059 0-2.434.404-3.356.985-.928.586-1.725 1.365-3.074 3.006-1.239 1.505-2.946 3.209-3.217 3.209-.686 0 1.236 1.399 3.181 2.315 1.449.682 2.124.923 6.953 2.486 1.567.508 3.221 1.103 3.675 1.323l.825.4v2.626c0 2.519-.012 2.625-.3 2.641-.165.01-1.35-.033-2.633-.095zm-22.682-12.381c.365-.24.376-.293.3-1.408-.102-1.484-.603-2.575-1.618-3.525-.91-.85-1.849-1.289-2.976-1.39-2.13-.191-3.55 1.032-3.865 3.328l-.093.68h.69c.998 0 1.93.358 3.603 1.387.813.5 1.724 1 2.025 1.11.643.238 1.401.167 1.934-.182zm477.114 8.169c-3.465-.07-8.781-.088-11.813-.038l-5.512.09v-36.036h59.25v17.458c0 15.084-.03 17.47-.217 17.543-.248.095-5.284.612-8.408.864-2.66.214-24.74.293-33.3.119zm-.375-18.96v-9.525h-7.5v19.05h7.5v-9.525zm31.8 0v-9.525h-6.45v19.05h6.45v-9.525zm-13.8-1.05v-9.525h-9.6v19.05h9.6v-9.525zm-208.063 16.813c-.034-.034-1.412-.139-3.062-.232-6.649-.375-9.143-.99-11.391-2.81-1.56-1.261-2.565-3.155-2.91-5.483l-.129-.863.615-.157c2.779-.712 4.386-2.256 6.192-5.955l.677-1.388h5.19l.461.526c.615.7.874 1.669 1.14 4.274.123 1.197.293 2.42.378 2.718.38 1.334 1.311 2.082 2.59 2.082h.712v3.675c0 2.963-.04 3.675-.2 3.675-.11 0-.228-.028-.263-.062zm124.365-2.45c.01-.849.45-2.473.913-3.344.62-1.163 2.113-2.56 3.743-3.5 3.482-2.008 4.189-2.472 5.063-3.325 1.06-1.035 1.074-1.118.386-2.494-.808-1.618-2.348-2.659-6.276-4.245-2.7-1.09-3.698-1.63-4.688-2.534-1.061-.97-1.196-1.231-.843-1.63.52-.59 1.994-1.43 2.965-1.693 1.424-.386 3.341-.254 5.141.352 3.403 1.147 6.55 3.198 12.097 7.882l2.642 2.231-.39.469a130.69 130.69 0 0 1-2.127 2.383c-5.338 5.874-10.206 8.706-16.548 9.629-2.114.307-2.08.31-2.078-.181zM383.7 403.38c-2.368-.426-4.12-1.611-5.324-3.604-.175-.288-.503-1.065-.73-1.725-.361-1.057-.417-1.476-.47-3.525-.034-1.278 0-2.696.063-3.15l.125-.824.973-.348c2.853-1.022 6.182-1.654 9.373-1.779l2.25-.088.917.692c1.479 1.116 2.811 2.635 3.456 3.94.548 1.107.577 1.24.577 2.6 0 1.29-.046 1.53-.463 2.41-1.116 2.354-3.797 4.361-6.91 5.172-1.042.272-2.962.386-3.837.229zm41.349-6.866c.207-2.6.93-5.038 2.144-7.238.296-.536 1.216-2.02 2.044-3.3 2.98-4.6 3.83-6.718 4.23-10.541l.091-.867 2.05.042 2.05.042.245.525c.134.288.667 1.74 1.184 3.225 1.267 3.637 1.937 5.139 2.983 6.687l.88 1.304-1.049 1.554c-3.188 4.723-6.686 7.513-11.215 8.948-1.602.507-3.88.932-4.997.932h-.744l.104-1.313zm-73.638-2.428c-5.142-1.321-7.688-2.604-9.89-4.98-.95-1.028-2.185-3.149-2.185-3.755 0-.416 1.974-2.874 3.594-4.475 4.525-4.47 9.802-6.69 17.288-7.271l1.158-.09.452.897c.3.594 1.065 1.545 2.261 2.812 2.016 2.134 2.59 3.087 2.842 4.715.132.852.014 3.062-.17 3.2-.027.02-.752.388-1.61.816-3.11 1.552-6.204 3.849-9.36 6.947-.994.976-1.88 1.772-1.969 1.768-.089-.003-1.174-.266-2.411-.584zm1.41-6.043c.985-.5 1.388-1.33 1.332-2.742l-.042-1.05-2.663-.04-2.662-.042v2.094c0 2.448-.157 2.277 2.01 2.186 1.024-.043 1.498-.138 2.026-.406zm62.49 5.961c-2.75-.742-5.273-2.402-8.048-5.295-1.172-1.221-3.825-4.538-4.296-5.37-.082-.145-2.094-.203-8.956-.258-8.926-.071-9.91-.125-13-.707-6.312-1.19-9.83-4.128-10.843-9.055-.253-1.231-.343-4.847-.125-5.053.065-.062 2.649-1.542 5.743-3.29 8.697-4.912 12.075-7.05 15.344-9.708 2.389-1.941 2.343-1.915 4.03-2.276 3.083-.66 4.469-.813 7.4-.819 5.482-.01 9.276 1.018 16.65 4.516 6.364 3.017 9.579 4.418 11.7 5.098l.45.144-.022 1.635c-.017 1.213-.143 2.178-.489 3.735-.61 2.756-.818 4.537-.694 5.963.056.64.062 1.162.013 1.162-.048 0-.834-.374-1.747-.831a204.732 204.732 0 0 0-4.76-2.259c-5.976-2.749-8.51-4.317-10.934-6.768-1.678-1.697-1.781-1.736-2.676-1.02-.428.342-.44.383-.38 1.453.136 2.431.095 3.025-.253 3.726l-.335.674.713.642c.393.353 2.165 1.812 3.94 3.242 4.81 3.88 6.883 6.065 8.28 8.727 1.202 2.289 1.917 5.29 1.919 8.048v1.46l-.781.616c-.978.774-2.559 1.576-3.676 1.867-1.05.274-3.157.274-4.168.002zm-28.245-19.5c.932-.124 2.232-.379 2.89-.568 1.146-.33 1.199-.364 1.31-.864.176-.792 0-1.538-.587-2.499-.334-.547-.56-1.131-.606-1.569-.066-.633-.114-.705-.524-.787-.812-.163-3.317-.09-4.335.126-2.63.557-3.728 1.98-3.728 4.828 0 1.023.046 1.267.262 1.393.391.228 3.386.194 5.318-.06zm-85.845 16.403c-1.234-.796-2.001-1.434-4.484-3.73-2.67-2.47-3.448-3.116-4.833-4.016-1.357-.882-2.963-1.58-4.47-1.941-.995-.239-1.114-.31-1.536-.923-2.004-2.914-5.71-10.05-7.993-15.396-.634-1.485-2.293-5.52-3.685-8.968-2.98-7.382-4.232-10.33-5.911-13.937-3.78-8.115-7.88-14.283-12.392-18.65-1.42-1.373-3.727-3.334-4.302-3.656-.18-.1-.393-1.337-.95-5.51-1.675-12.566-2.036-17.622-1.54-21.583.093-.743.08-.777-.96-2.325-.58-.864-1.718-2.39-2.529-3.39l-3.335-4.118c-2.172-2.683-3.652-4.873-4.694-6.948-.734-1.459-1.801-4.408-2.006-5.54l-.104-.576.882.102c3.006.346 4.418 1.488 6.657 5.386 1.366 2.379 2.455 3.729 3.501 4.342.73.427 2.444.951 2.6.795.056-.056-.46-.928-1.145-1.937-3.99-5.875-5.581-8.322-6.412-9.862-1.32-2.445-3.069-6.927-2.773-7.105.243-.147 2.458.554 3.704 1.17 2.805 1.388 4.78 3.567 6.889 7.6l.945 1.806.245-.613c.36-.898.309-2.285-.128-3.523-.202-.573-.97-2.092-1.706-3.375-.736-1.284-1.508-2.674-1.715-3.088-1.161-2.326-1.316-4.573-.443-6.423l.485-1.026.584.463c1.404 1.111 3.176 3.293 4.55 5.6 1.493 2.509 2.736 5.363 4.82 11.068 1.637 4.485 2.653 7.046 2.794 7.046.18 0 .455-1.74.455-2.883 0-1.652-.405-3.312-1.877-7.692-1.508-4.486-1.95-6.313-2.108-8.7-.098-1.48.137-4.373.375-4.62.186-.194 2.044 1.923 3.184 3.627 3.394 5.076 5.73 12.292 8.081 24.956.18.97.389 1.762.464 1.762.257 0 1.463-1.22 1.94-1.963.67-1.046 1.23-2.566 2.095-5.701 1.068-3.871 1.79-5.521 2.965-6.773.373-.398.441-.413 1.923-.413h1.536l.105.842c.058.462.07 2.099.026 3.637-.132 4.707-.851 7.87-3.638 15.996-3.533 10.307-4.404 13.608-4.942 18.73-.238 2.265-.288 6.495-.101 8.549l.107 1.179 3.37 3.324c1.853 1.829 5.765 5.48 8.694 8.114 8.176 7.352 13.656 12.95 17.054 17.418 3.045 4.003 5.936 9.136 7.472 13.261.654 1.758.79 1.841 4.925 3.018.646.183 1.444.529 1.774.767.665.482 1.167 1.42 1.172 2.192v.501l.785-.705c2.679-2.41 5.16-3.148 9.344-2.785 1.07.093 2.12.205 2.334.248.33.066.61-.13 1.85-1.306 2.726-2.58 4.826-5.65 8.038-11.755 3.463-6.58 5.83-10.07 8.461-12.48.825-.756 1.092-.919 1.415-.866.219.036 1.613.241 3.098.455 1.485.215 4.927.793 7.65 1.285 13.053 2.36 16.986 2.795 23.85 2.635 4.554-.106 5.652-.267 10.425-1.526 4.316-1.138 5.49-1.34 7.172-1.237 2.239.139 3.946 1.324 5.008 3.478.383.775.453 1.046.326 1.248-.232.37-3.707 2.107-5.987 2.992-1.07.415-3.767 1.378-5.994 2.14-6.604 2.259-9.633 3.583-12.349 5.4-1.671 1.118-3.612 3.009-4.506 4.39-.539.831-.727 1.011-1.054 1.011-.578 0-.972-.334-1.502-1.272-.257-.455-.528-.828-.603-.828-.075 0-.233-.037-.351-.082-.129-.05-.698.334-1.411.95-2.358 2.034-5.291 3.96-8.95 5.876-3.598 1.885-7.355 3.467-17.124 7.21-11.331 4.342-16.558 6.957-21.525 10.772-2.421 1.86-5.194 4.76-6.73 7.037-.716 1.062-.958 1.139-1.681.53-1.312-1.104-1.516-3.919-.444-6.114.24-.493.424-.901.409-.908-.016-.006-.83-.539-1.807-1.183-2.152-1.419-4.382-3.186-8.662-6.863-6.969-5.987-10.095-8.103-13.804-9.342-1.563-.522-2.081-.63-2.081-.435 0 .185 1.399 2.53 2.412 4.043 2.319 3.463 4.383 5.81 10.742 12.216l4.846 4.882v4.071l-.673.092c-.37.05-1.077.296-1.571.545-1.257.635-1.826.604-3.02-.166zm-37.95-76.417c.145-.504.214-1.574.218-3.364 0-2.157-.053-2.896-.323-4.147-.65-3.004-1.973-6.22-3.507-8.528l-.798-1.2-.046 3.975c-.103 8.819.663 12.025 3.266 13.679.368.234.74.402.825.374.085-.028.25-.383.366-.79zm377.115 76.513c-2.16-.485-3.766-1.322-5.281-2.752-1.71-1.613-2.81-3.51-3.489-6.025-.425-1.572-.484-5.259-.113-7.05.679-3.271 2.02-5.86 4.158-8.031 2.748-2.79 5.827-3.965 9.892-3.775 1.952.091 3.943.523 5.935 1.287l1.123.43.499 1.182c.826 1.957 1.783 4.884 2.186 6.685 1.283 5.741.513 10.352-2.463 14.747-1.137 1.68-1.283 1.791-3.09 2.374-2.52.812-3.67 1.016-6.132 1.084-1.626.046-2.52.002-3.225-.156zm5.55-6.072c1.279-.309 3.239-1.043 4.119-1.544.509-.29.65-.49.975-1.387.352-.972.38-1.24.38-3.674 0-2.296-.054-2.894-.432-4.781l-.434-2.157-1.366-.646c-1.932-.912-3.408-1.266-5.282-1.266-2.496 0-3.993.61-5.505 2.244-1.468 1.586-2.2 3.605-2.203 6.087 0 2.35.682 4.22 2.048 5.588 1.789 1.792 4.442 2.32 7.7 1.536zm-488.96 4.265c-3.21-.865-6.086-3.904-7.022-7.42-.345-1.295-.347-3.403-.004-4.568a10.557 10.557 0 0 1 1.471-3.03c.387-.542.432-.705.342-1.241-.165-.978-.92-1.962-1.877-2.447-.758-.384-1.466-.582-5.1-1.43-.701-.163-1.528-.403-1.837-.533-.559-.233-.563-.242-.564-1.105 0-1.202-.234-1.952-.68-2.186l-.368-.192.454-.551c.25-.303.954-.885 1.566-1.294 3.234-2.164 8.22-2.926 12.299-1.882 1.084.277 2.87 1.11 3.353 1.564l.348.327-.1 3.997c-.064 2.53-.045 4.335.053 4.919.167 1 .73 2.452.949 2.452.075 0 .556-.356 1.069-.79.513-.436 1.912-1.5 3.108-2.363 3.444-2.488 5.124-4.252 6.109-6.413l.416-.912 1.2.862c.66.475 2.366 1.691 3.792 2.703 6.513 4.625 10.394 8.356 12.905 12.404.9 1.451 1.978 3.566 1.978 3.881 0 .446-4.835.236-6.957-.302-2.448-.62-4.12-2.212-4.39-4.182l-.09-.66-.994-.202c-.552-.111-1.828-.194-2.869-.185-1.59.013-2.057.075-3.075.409-2.426.794-4.094 1.97-7.928 5.585-2.663 2.513-3.978 3.6-5.356 4.425-1.092.656-1.097.657-2.2.36zm42.26-18.578c-.372-.106-.66-.269-.64-.36.065-.309 5.01-8.49 6.002-9.932 3.238-4.703 6.224-7.654 9.127-9.02 1.179-.555 2.767-1.023 3.49-1.027.353-.002.355.008.253 1.16-.057.64-.347 2.344-.645 3.787-.473 2.287-.542 2.889-.536 4.666l.007 2.04-.707.254c-1.084.39-3.194 1.835-5.082 3.48-3.58 3.12-4.736 3.952-6.502 4.68-.774.32-1.223.396-2.517.428-.96.024-1.839-.037-2.25-.156zm322.126-.108c-2.063-.421-3.584-1.65-5.635-4.552-2.152-3.046-3.294-4.099-4.252-3.919-1.107.208-2.222 1.175-3.93 3.408-2.538 3.319-3.656 3.961-6.772 3.893-.472-.01-.637-.074-.637-.248 0-.465-.778-1.864-1.455-2.617-.812-.903-1.74-1.554-4.095-2.875-.95-.532-1.978-1.131-2.286-1.333l-.56-.366v-4.275h3.05c1.677 0 3.083.034 3.124.075.04.04.01.399-.074.795-.219 1.066-.058 1.48.755 1.952.383.222.928.623 1.21.892.447.423.508.566.46 1.072l-.056.583.835-.421c1.212-.612 2.003-1.29 5.02-4.296 2.047-2.04 2.922-2.807 3.62-3.171.507-.264.995-.48 1.084-.48.16 0 2.36 1.806 5.12 4.204 3.71 3.221 6.306 4.826 9.558 5.907 1.182.393 1.237.432 1.331.933.146.774-.01 1.415-.528 2.239-.526.83-.819 1.745-.689 2.155.063.198-.01.301-.255.37-.64.18-3.19.229-3.94.075zm34.874-.133c-6.564-.288-13.446-.899-14.341-1.273-1.35-.563-1.976-1.367-2.857-3.668-.302-.79-.758-1.84-1.012-2.335a60.96 60.96 0 0 1-.514-1.012c-.028-.062 17.032-.113 37.911-.113 20.88 0 37.962.051 37.96.113 0 .256-.777 1.436-1.948 2.973-1.276 1.674-1.863 2.757-2.014 3.72-.047.3-.12.764-.16 1.033l-.075.489-9.788-.001c-5.383 0-16.639.044-25.012.1-8.374.056-16.542.044-18.15-.026zm-455.751-1.913c-.867-1.43-1.2-2.604-1.204-4.238-.007-2.922 1.358-5.577 3.926-7.638 3.524-2.829 7.9-2.624 10.979.513l.675.688v1.756c0 2.14-.208 2.793-1.453 4.567-1.959 2.792-2.398 3.514-2.642 4.344l-.255.87h-9.504l-.522-.862zm94.493-.949c-.362-.865-.793-2.66-.995-4.143-.295-2.165-.117-6.417.364-8.695 1.196-5.66 3.661-9.905 7.08-12.192 1.531-1.024 2.537-1.37 5.046-1.74.31-.045.563-.163.563-.263 0-.408 1.697-3.51 3.38-6.18 2.887-4.58 4.074-7.182 4.645-10.176.124-.647.225-1.404.225-1.682 0-.579-.024-.555 1.575-1.6.84-.549 2.122-1.708 4.275-3.864 4.225-4.233 5.662-5.156 8.025-5.154 1.336 0 2.257.262 3.462.98l.763.454-.113.696c-.062.382-.334 1.202-.604 1.82-.43.985-.493 1.292-.5 2.459l-.008 1.333-.958.582c-2.807 1.708-5.041 4.141-7.215 7.86-1.192 2.04-2.202 4.163-4.348 9.141-1.617 3.75-3.927 8.492-4.266 8.757-.09.07-.67.278-1.288.462-1.47.437-3.515 1.5-4.937 2.564-.626.468-2.15 1.744-3.388 2.834-2.492 2.196-4.635 3.708-6.181 4.362l-1.019.43.051 1.846c.037 1.334-.017 2.141-.195 2.913-.242 1.049-.468 1.54-2.302 5.007l-.913 1.725-.224-.536zm-25.15-6.115c-1.314-.666-2.462-1.507-4.642-3.398-1.841-1.596-4.492-3.526-4.845-3.526-.085 0-.113-.93-.069-2.362.057-1.83.2-3.072.635-5.513.486-2.722.564-3.465.569-5.475.007-2.628-.089-3.003-1.038-4.058-.318-.352-1.522-1.259-2.677-2.014-2.288-1.495-2.92-2.103-3.502-3.37-.314-.682-.384-1.068-.39-2.132-.004-.715.043-1.352.105-1.414.182-.182 3.051.377 4.697.915 2.888.943 5.242 2.296 9.456 5.433l2.759 2.054-.002.906c-.003 1.736-.508 3.035-2.098 5.405-1.672 2.491-2.203 3.957-2.064 5.69.154 1.926 1.007 3.053 3.659 4.834 1.818 1.22 2.837 2.188 3.335 3.163.392.77.614 2.277.49 3.338l-.095.825-1.203.09c-1.243.093-1.815.318-1.96.773-.107.34-.136.335-1.12-.164zm408.908-1.324c-.95-.02-6.598-.15-12.555-.287a700.77 700.77 0 0 0-20.948-.187l-10.119.064-.085-.534c-.15-.946-.883-1.878-2.148-2.735-1.593-1.08-2.78-2.288-3.011-3.063-.193-.65-.243-2.148-.09-2.72l.09-.338h88.894l.174.835c.248 1.198 0 2.102-.922 3.317-.936 1.236-1.189 1.734-1.31 2.577l-.097.683-1.289.26c-8.46 1.7-21.359 2.451-36.585 2.128zm-396.083-2.914c-2.307-1.444-3.332-3.388-3.474-6.586-.095-2.158.142-4 1.217-9.45 1.014-5.138 1.192-6.47 1.196-8.935.002-1.69-.039-2.032-.297-2.475-.425-.731-.845-.727-2.493.029-1.134.52-1.56.64-2.306.647-.603.006-1.007-.067-1.188-.216-.36-.295-1.2-2.122-2.173-4.725-.432-1.155-1.081-2.7-1.443-3.432-.36-.733-.656-1.358-.656-1.388 0-.03.155-.055.345-.055.19 0 .694-.173 1.12-.386.852-.424 1.415-1.104 2.35-2.839.838-1.554 1.513-2.309 2.453-2.739.7-.32.97-.363 1.912-.303 2.252.145 3.412 1.123 5.099 4.3.552 1.04 1.237 2.196 1.522 2.567.469.612 1.57 1.5 1.86 1.5.263 0 .503-2.67.74-8.25.295-6.93.602-9.86 1.346-12.826.798-3.184 1.925-5.394 3.721-7.298.954-1.01 2.574-2.226 2.969-2.226.111 0 .436.206.723.457.897.788 1.185 2.247 1.363 6.893.172 4.509.61 6.743 1.586 8.09.378.522.462.782.462 1.436 0 1.218-.474 1.898-2.14 3.063-1.054.738-1.114.926-.895 2.823.292 2.533.377 6.816.177 8.982-.373 4.05-1.401 7.828-2.999 11.026-1.789 3.58-3.702 6.064-7.57 9.832l-2.644 2.576-.002 1.174c-.001.645.079 2.301.177 3.68.136 1.903.138 2.73.007 3.435-.178.958-.789 2.083-1.13 2.083-.106 0-.527-.209-.935-.464zm131.728.227c-2.208-.535-4.193-2.193-5.371-4.488-1.102-2.144-1.636-4.327-1.853-7.575-.087-1.307.129-4.964.323-5.471.1-.257 1.409-1.015 2.499-1.447a4.93 4.93 0 0 1 1.655-.31c.777-.002 1.116.116 3.075 1.065 1.21.586 2.69 1.183 3.289 1.327 1.254.302 1.084.014 1.894 3.186 1.749 6.852 1.467 10.619-.96 12.811-1.27 1.147-2.516 1.394-4.551.902zm343.03-4.549c-.825-.313-2.783-1.16-4.35-1.882-1.568-.722-3.344-1.51-3.946-1.749-4.37-1.739-7.368-1.51-9.81.746-.758.701-2.216 2.638-2.4 3.187-.04.12-.301-.047-.696-.443-1.145-1.144-1.964-1.586-6.309-3.404-4.204-1.76-5.864-3.8-5.864-7.21 0-1.248 0-1.259.381-1.259 1.183 0 4.606.986 6.178 1.78 1.238.625 2.645 1.724 3.41 2.663l.66.809.34-.488c.694-.993 2.337-2.578 3.394-3.273 1.855-1.22 4.582-1.917 6.787-1.732 6.255.523 11.697 5.042 13.433 11.151.216.762.37 1.45.343 1.529-.028.079-.726-.112-1.551-.425zm-528.327-2.775c-15.242-8.764-22.12-13.105-29.31-18.501l-1.9-1.425 1.047-1.894c1.342-2.43 2.717-4.73 6.642-11.119 4.497-7.32 6.254-10.43 8.532-15.104l.735-1.508.904-.082c1.088-.098 3.25.108 4.489.43 3.06.792 5.703 2.336 10.913 6.375 5 3.877 8.02 5.708 11.034 6.69l1.266.411v6.212l-.57.096c-.313.053-1.155.024-1.87-.065-3.813-.474-7.467-2.298-12.935-6.458-5.319-4.046-6.75-5.096-6.942-5.096-.112 0-.52.213-.906.473-3.628 2.45-6.221 5.939-8.846 11.904-.732 1.664-2.882 7.343-2.88 7.606.005.378 4.372 3.11 12.299 7.693 5.018 2.902 8.2 4.832 10.568 6.413 1.788 1.193 5.072 3.651 5.983 4.478l.724.658-.313.825c-.178.467-.802 1.442-1.44 2.25-.619.783-1.163 1.543-1.209 1.687-.046.144-.163.261-.26.26-.099-.002-2.688-1.446-5.755-3.21zm195.403.614-.974-.34-.098-.688c-.124-.866-.342-1.277-.744-1.404-.262-.084-.3-.18-.223-.567.19-.954 1.183-2.63 2.58-4.359 1.776-2.199 2.61-3.472 2.605-3.98-.01-.653-.545-1.637-1.076-1.963-.273-.167-1.238-.538-2.146-.823-2.383-.75-3.253-1.45-3.009-2.421.15-.6 1.005-1.339 1.918-1.657.856-.298 2.208-.33 7.991-.193 3.428.081 4.276-.094 5.213-1.079 1.728-1.817-.595-2.567-6.413-2.07-.99.084-2.18.111-2.644.06l-.844-.094-.089-.649c-.125-.917.134-3.588.498-5.118.375-1.58 1.22-3.424 2.26-4.926.966-1.398 3.367-3.719 5.282-5.107 1.609-1.165 1.623-1.19 1.98-3.26.366-2.135.508-5.965.455-12.327-.056-6.76.027-6.348-1.255-6.188-.381.047-1.3.336-2.043.642-1.73.712-2.438.744-3.07.138-.856-.82-1.28-3.31-.68-3.984.412-.463 1.14-.746 1.921-.746.821 0 2.735.482 3.535.89l.605.31-.596-1.242c-.328-.683-.706-1.78-.841-2.437-.318-1.547-.153-2.773.73-5.413.62-1.852.646-2.007.644-3.733 0-1.514-.057-1.942-.348-2.7-.507-1.32-.493-1.435.218-1.831.833-.464 2.71-.699 4.87-.61l1.745.072-.136-.607c-.075-.333-.41-1.319-.743-2.19-.333-.87-.675-1.819-.76-2.107-.21-.718-.06-2.752.278-3.752l.278-.825 3.064-.04c1.706-.023 3.125.02 3.201.096.22.22.685 3.91.87 6.915.242 3.919-.032 8.727-.776 13.654-.386 2.556-2.065 11.848-2.172 12.021-.044.071-.75.13-1.57.13-.82 0-1.49.016-1.49.037 0 .02.1.307.219.637.304.846.279 2.36-.082 4.88-.385 2.686-.413 5.055-.072 5.993.406 1.118 1.213 1.8 2.459 2.08l.607.137.303-1.295c.424-1.816.718-4.228.99-8.133.718-10.327 1.155-13.131 2.504-16.074l.464-1.013h16.725l.053 1.27.053 1.271.84.867c1.142 1.177 1.335 1.503 1.335 2.25 0 .354.04.642.092.642.05 0 .709-.165 1.462-.368 4.156-1.116 9.27-1.212 16.37-.306 2.56.327 7.056 1.076 9.676 1.612l.975.2.045 1.113c.057 1.417-.311 3.248-.905 4.5-.65 1.37-2.215 2.898-3.79 3.7-2.384 1.215-4.25 1.67-10.652 2.602-4.652.677-6.27 1.004-8.248 1.664-1.738.581-3.002 1.293-4.102 2.311l-.88.815-.326-1.235c-.523-1.982-1.205-3.347-3.136-6.286-.999-1.519-2.077-3.272-2.396-3.897-.921-1.8-1.535-4.081-1.535-5.702v-.723l-2.662.002c-3.007.001-2.93-.022-4.29 1.307-2.892 2.828-4.898 8.823-4.898 14.638 0 2.385.182 3.86.694 5.638.786 2.73 2.043 4.618 3.9 5.86 1.64 1.096 2.82 1.424 5.156 1.428 1.031.002 2.145-.03 2.475-.072l.6-.075.047.975c.062 1.272-.199 3.032-.643 4.336-1.261 3.71-4.373 5.977-9.698 7.068l-1.379.283-1.213 1.25c-1.557 1.603-3.064 2.937-6.69 5.918-1.608 1.322-3.54 2.985-4.29 3.694-3.081 2.908-5.355 6.177-6.506 9.352l-.335.926-.772.102c-.424.056-1.403.23-2.175.387-1.877.38-3.152.362-4.37-.063zm17.999-32.203v-2.1h-.723c-2.154 0-3.596 1.173-4.462 3.627l-.202.573h5.387v-2.1zm83.7 31.699c-8.751-.685-14.098-4.003-16.152-10.024-.463-1.358-.752-3.032-.884-5.137l-.107-1.688h-1.591c-2.205.002-5.522.218-12.616.825-8.813.754-10.004.822-14.4.823-4.084.002-6.104-.12-8.85-.536-2-.303-5.155-1.106-6.731-1.714l-1.22-.47v-.563c0-1.042.48-3.38.985-4.794 1.066-2.991 2.224-4.57 6.666-9.096 1.863-1.898 3.67-3.796 4.017-4.22.978-1.193 2.218-3.254 2.675-4.447.229-.596.425-1.1.437-1.121.012-.021.826-.266 1.809-.543.983-.278 2.85-.884 4.15-1.347 3.393-1.209 4.883-1.491 7.831-1.483l2.395.006 2.754-1.803c5.849-3.827 8.387-4.7 13.355-4.595 2.257.048 2.48.078 2.675.353.118.165 1.042 1.751 2.053 3.525a557.504 557.504 0 0 0 4.02 6.9c8.202 13.818 11.299 21.874 12.138 31.575.18 2.074.105 7.183-.129 8.85l-.105.75-2.25.013c-1.238.007-2.554-.01-2.925-.04zm115.8-3.552c-2.834-1.009-4.985-2.809-6.834-5.72-.81-1.274-1.992-3.833-2.981-6.452-2.577-6.823-3.44-8.764-4.776-10.756-.671-1.001-.673-1.008-.354-1.216 1-.654 1.398-.478 3.293 1.458 1.337 1.366 1.628 1.59 2.341 1.8 1.147.337 1.378.308 2.24-.286.42-.288.894-.525 1.053-.525.365 0 .77-1.103.764-2.089-.01-1.508-.966-2.622-3.378-3.922-2.28-1.229-2.434-1.54-1.075-2.17l.747-.346-.583-.154c-.32-.085-2.675-.597-5.232-1.14-6.833-1.447-8.56-1.832-11.55-2.57-6.474-1.601-11.112-3.234-14.966-5.27-2.603-1.375-2.492-1.263-3.311-3.357-1.693-4.325-3.768-8.223-8.66-16.269-1.71-2.811-3.546-5.883-4.08-6.825-.903-1.593-3.408-6.488-3.408-6.66 0-.154 1.49-.072 2.793.151 3.812.655 6.492 2.124 9.37 5.137 1.64 1.718 2.354 2.691 5.2 7.1 2.485 3.85 3.434 5.155 4.79 6.592l1.011 1.072.33-.413c.482-.605.907-2.042 1.176-3.981.315-2.263.527-3.606.615-3.903.052-.173.319-.264.948-.32 1.774-.162 2.837-.876 4.732-3.18 1.387-1.686 2.103-2.326 3.105-2.775.608-.272.662-.275.799-.037.264.458.27 4.332.012 7.004-.673 6.935-.405 9.556 1.117 10.931.749.676 1.487.91 2.901.915 1.344.005 1.385-.025 1.927-1.412.265-.678.337-1.24.39-3.014.057-1.899.001-2.617-.426-5.55-.794-5.44-.687-7.762.436-9.433.497-.74 1.63-1.693 1.938-1.63.115.024.556.853.98 1.843 1.053 2.456 4.73 9.837 6.312 12.668.712 1.275 1.294 2.403 1.294 2.507 0 .254-.517.52-1.398.721l-.723.165.888 1.345c1.072 1.623 1.954 2.62 4.84 5.47 2.974 2.937 3.85 4.305 4.933 7.708 1.288 4.045 1.537 8.308 1.226 20.941-.132 5.351.03 10.47.428 13.544.168 1.302.306 2.433.306 2.512 0 .228-.448.166-1.5-.209zm50.13-4.145c-1.08-.255-1.852-.629-1.765-.854.143-.375 1.818-2.756 2.88-4.098 2.41-3.04 6.39-6.5 9.838-8.554 1.595-.95 4.317-2.308 5.546-2.767.696-.26.705-.272.805-1.077.21-1.676-.264-2.846-1.607-3.97-.816-.684-1.627-1.806-1.627-2.252 0-.144-.058-.298-.13-.342-.071-.044-1.033.15-2.137.43-9.3 2.36-15.144 6.566-18.27 13.145a25.79 25.79 0 0 0-1.222 3.212 74.987 74.987 0 0 1-.573 1.913c-.082.227-.27.155-1.443-.552-4.307-2.597-6.43-6.091-6.166-10.146.216-3.312 1.233-6.284 4.515-13.19 2.873-6.046 3.945-8.735 4.751-11.925.386-1.525.467-2.18.534-4.292.046-1.465.019-2.598-.065-2.749-.123-.218-.305-.084-1.242.918-.603.645-1.979 2.253-3.056 3.573-4.756 5.827-6.807 7.845-9.656 9.501-.917.533-.943.565-.872 1.074.197 1.419.244 4.604.092 6.225-.21 2.233-.498 3.45-1.14 4.8-.618 1.302-1.328 2.142-2.355 2.786a92.31 92.31 0 0 0-.843.533c-.131.091.857 4.606 1.938 8.852.654 2.57 1.19 4.72 1.19 4.782 0 .182-1.462-.068-2.376-.406-1.807-.668-3.388-2.074-4.528-4.027-.67-1.147-.849-1.537-2.124-4.641-1.874-4.559-3.207-6.468-5.24-7.511-.54-.277-.546-.276-.856.054-.172.183-.467.669-.657 1.08-.317.689-.345.958-.35 3.373 0 1.444-.02 2.775-.037 2.958-.04.407-.831 1.332-1.385 1.619-.377.195-.46.178-1.071-.21-.924-.585-1.696-1.537-2.388-2.942-2.49-5.059-1.696-13.833 1.616-17.875.688-.84 2.172-1.826 2.93-1.947l.597-.096-.093-.616c-.154-1.019-1.063-2.661-2.47-4.463-1.795-2.298-2.153-3.03-2.23-4.552-.047-.927.01-1.405.242-2.097.166-.493.275-.924.241-.957-.033-.033-1.362.064-2.953.215-1.591.151-3.67.274-4.618.272-1.671-.003-4.078-.267-4.758-.522-.351-.132-.83-.989-1.866-3.336-3.592-8.142-4.872-16.827-3.486-23.644.582-2.863 1.938-5.983 3.517-8.094 1.405-1.878 3.842-4.068 5.506-4.945.304-.16.414-.107 1.1.534.419.392.942 1.02 1.162 1.393.36.613.399.823.39 2.106-.01 1.363-.05 1.538-.961 4.05-1.937 5.343-2.23 7.289-1.627 10.842l.173 1.018.687-.1c2.057-.3 3.412-1.321 5.625-4.243 1.39-1.835 2.242-2.71 3.173-3.258.626-.368.901-.434 1.79-.434.652 0 1.315.102 1.749.27l.7.27-.598 1.274c-.328.7-.772 1.929-.986 2.73-.343 1.288-.389 1.75-.395 4.006-.01 3.256.303 4.795 2.078 10.279 2.07 6.397 2.436 8.175 2.273 11.045l-.097 1.694.995 1.055c.743.788 1.282 1.196 2.13 1.615 1.079.534 1.206.561 2.568.552 1.12-.007 1.622-.084 2.303-.351 4.728-1.857 9.41-8.978 10.663-16.214.264-1.525.383-2.85.256-2.85-.051 0-.902.711-1.89 1.582-2.066 1.816-3.19 2.452-4.559 2.576-.72.065-.916.039-.92-.125 0-.115-.102-1.153-.222-2.308-.285-2.75-.28-5.906.013-8.85.17-1.7.192-2.477.081-2.722-.222-.487-1.127-1.014-2.664-1.552-2.657-.93-3.607-1.735-3.45-2.926.102-.78.722-1.34 1.818-1.645l1.676-.466c.502-.14 1.021-.41 1.275-.664.366-.366.428-.545.428-1.25v-.822l-1.07-.99c-.588-.545-2.538-1.97-4.332-3.165-5.62-3.744-7.332-5.553-8.102-8.561-.351-1.375-.374-2.746-.07-4.186.257-1.213.795-2.891.96-2.993.146-.09 1.373.244 2.385.65 2.226.893 4.161 2.708 7.183 6.735 1.194 1.59 2.62 3.349 3.17 3.906 1.595 1.617 3.478 2.766 5.236 3.195.954.232 1.035.315 1.149 1.173.054.405.427 1.771.83 3.035 1.235 3.882 1.346 5.273.543 6.856-.47.927-.433 1.278.209 2.01.59.67 1.552 1.171 3.69 1.919 2.705.945 3.786 1.567 4.097 2.356.088.223.5 1.892.918 3.707 1.394 6.074 2.578 9.42 4.207 11.895 2.534 3.845 6.141 5.136 10.946 3.917 1.918-.487 2.037-.574 2.4-1.746.547-1.77.616-2.899.58-9.491-.023-4.461.022-6.683.148-7.399.247-1.393.778-2.963 1.036-3.062.411-.158 2.831.583 4.461 1.366.908.436 2.46 1.3 3.45 1.92 2.14 1.34 3.73 2.207 4.926 2.689l.876.352-.1 1.354c-.578 7.775-3.099 13.369-8.544 18.96-2.185 2.243-4.278 4.04-8.933 7.663-1.939 1.51-4.274 3.375-5.19 4.145-1.741 1.465-5.986 5.735-5.843 5.878.126.127 9.782-4.732 12.158-6.118 7.649-4.462 13.621-9.446 17.49-14.597.507-.675.972-1.246 1.032-1.27.241-.093.63 1.846.623 3.102-.01 1.634-.25 2.869-1.374 7.067-1.135 4.237-1.404 5.864-1.312 7.94.052 1.187.167 1.861.458 2.687.214.607.424 1.138.467 1.181.142.142 1.355-.669 2.104-1.407 1.594-1.569 2.688-3.713 3.922-7.683 2.78-8.944 3.275-10.027 5.548-12.153 1.42-1.328 2.78-1.965 4.194-1.965 3.563 0 5.678 1.805 7.857 6.709l.748 1.684-.628.158c-3.144.794-4.969 2.668-5.818 5.975-.347 1.348-.68 4.137-.808 6.774-.357 7.298-.936 10.686-2.327 13.613-.743 1.564-1.322 2.413-2.467 3.616-3.696 3.884-9.548 5.445-21.759 5.807l-3.3.098-1.2.634c-.66.35-2.01 1.091-3 1.65-2.614 1.474-4.147 2.133-5.925 2.55-1.027.24-2.885.281-3.72.083zm-388.14-7.848c-.703-.858-1.372-2.322-1.691-3.704-.418-1.806-.354-7.151.144-12.075.217-2.145.473-4.98.57-6.3.185-2.553.098-7.654-.156-9.062-.145-.8-.14-.821.368-1.383.284-.314 1.289-1.607 2.234-2.874 2.067-2.77 3.704-4.375 5.236-5.128 1.181-.581 2.755-.97 3.939-.975l.759-.003.184-.712c.585-2.262 1.618-3.836 4.488-6.835 2.729-2.851 3.568-3.86 4.316-5.191l.594-1.055 1.534-.003 1.535-.003.292.573c.713 1.398.986 2.59.986 4.302 0 2.414-.32 3.27-2.895 7.768-.745 1.303-1.53 2.825-1.743 3.382-.428 1.12-.828 2.839-.832 3.575-.003.454-.05.491-1.015.809-2.099.69-3.64 1.666-5.229 3.312-2.662 2.757-4.173 6.19-5.999 13.629-.536 2.186-1.248 5.089-1.58 6.45-.814 3.324-1.764 6.162-2.748 8.208-.886 1.842-2.252 3.942-2.565 3.942-.108 0-.434-.29-.726-.646zm311.01-7.437c-.454-.146-1.355-.513-2.002-.813l-1.177-.547.053-2.74c.05-2.605.073-2.785.456-3.605.45-.963.77-1.162 1.872-1.162.733 0 .971.187 2.316 1.817l.544.658 1.069-.01 1.069-.012v6.236l-.778.23c-1.015.302-2.393.281-3.422-.052zm-361.024-17.722c-6.213-.782-11.548-4.249-14.88-9.67-2.633-4.282-3.935-9.803-3.473-14.731.937-10.003 7.224-17.102 16.912-19.096 6.17-1.27 11.405-.166 15.734 3.317 8.067 6.49 10.758 20.556 5.81 30.37-2.205 4.375-5.567 7.36-9.931 8.822-2.615.875-7.384 1.338-10.172.988zm5.449-8.827c4.966-1.238 8.653-4.681 9.975-9.318.414-1.45.553-3.96.306-5.509-.686-4.303-3.466-9.328-6.19-11.189-1.882-1.286-5.136-2.138-7.691-2.012-2.859.14-4.97 1.117-7.214 3.335-2.468 2.44-4.331 5.74-5.835 10.337l-.489 1.494.592.968c.846 1.382 1.215 2.282 1.834 4.472.526 1.858 1.539 4.168 2.459 5.604.4.624.528.706 1.692 1.078 1.754.561 2.43.732 3.81.963 1.692.283 5.186.167 6.75-.223zm196.306 8.26c-.19-.028-.572-.278-.85-.557-.664-.663-.854-1.592-.799-3.906l.043-1.79.675.042c2.475.15 4.189 1.744 4.48 4.167l.117.966-.836.002c-1.183.002-1.929.243-2.231.722-.18.284-.357.389-.599.354zm190.319-.684c-1.922-.786-3.023-1.338-3.863-1.939-.62-.443-.637-.478-.637-1.298 0-1.682.718-3.537 1.847-4.77.84-.918 2.274-1.837 2.863-1.836 2.597.005 4.252 2.952 3.642 6.486-.123.715-.39 1.66-.59 2.101-.395.86-1.234 1.917-1.515 1.906-.095-.004-.881-.296-1.747-.65zm-215.228-5.707c-1.46-.365-2.144-1.121-2.243-2.479-.036-.493-.026-1.05.021-1.24.08-.32.15-.34 1.075-.292.932.048 1.046.016 2.003-.562.755-.456 1.174-.614 1.637-.614.575 0 .65.05.987.638.2.35.453.907.56 1.237.219.667.283 3.128.088 3.325-.211.213-3.262.204-4.128-.013zm23.278-5.42c-.049-.13-.047-.6.01-1.048.31-2.634 2.205-4.838 4.29-4.99.966-.07 1.733.131 2.61.683.558.351.577.39.505 1.032-.047.416-.294 1.02-.655 1.6-.533.855-.58 1.014-.563 1.944l.018 1.012h-3.06c-2.635 0-3.072-.032-3.15-.234zm243.573-9.748c-5.436-2.47-10.563-8.33-12.59-14.394-.817-2.448-1.003-3.647-.999-6.45.01-2.93.274-4.422 1.199-6.645.298-.718.554-1.44.567-1.605.043-.52-.77-.458-2.25.172-1.154.49-1.482.564-2.536.57-1.077.008-1.279-.037-1.837-.406-.567-.375-.627-.474-.627-1.03 0-2.18.966-5.9 1.965-7.569 1.14-1.905 3.151-3.372 5.205-3.797 3.402-.704 8.204.723 12.93 3.842 3.816 2.519 7.28 6.052 8.94 9.118.312.578.64 1.1.726 1.16.087.061.47.112.85.113 1.204.004 1.44-.314 2.08-2.803.089-.347.335-.836.546-1.088.358-.425.454-.456 1.384-.456 2.024.002 3.183.647 3.945 2.195.48.975.504 1.101.502 2.676 0 1.163-.104 2.107-.343 3.182-.347 1.56-1.574 5.408-1.788 5.605-.175.162-3.395.414-7.542.59-8.864.375-11.1.558-14.95 1.226l-1.823.316.195.553c.563 1.595 1.55 2.988 4.046 5.706 1.772 1.931 2.574 3.016 3.215 4.35.497 1.035.54 1.234.541 2.475 0 .951-.081 1.561-.274 2.063-.151.392-.32.709-.375.704-.055-.005-.461-.173-.902-.373zm-270.173-.69c-2.138-.353-3.754-1.632-5.73-4.535-2.146-3.151-3.59-4.347-5.76-4.765-.487-.094-.932-.212-.99-.262-.056-.05.025-.834.18-1.742 1.21-7.037 3.953-10.238 9.256-10.803l.93-.1-.555 1.084c-.518 1.008-.556 1.173-.55 2.376.01 1.745.304 2.431 2.36 5.525 2.924 4.4 3.618 6.157 3.628 9.193.01 1.854-.272 3.632-.623 3.983-.24.24-.89.254-2.146.046zm-139.425-3.31c-.709-.254-1.247-.668-2.775-2.137-.784-.754-1.707-1.493-2.05-1.643l-.626-.273-.1-1.295c-.522-6.737-2.068-11.147-7.133-20.346-4.031-7.32-5.637-11.146-6.387-15.223-.266-1.443-.447-5.76-.286-6.83l.106-.708.925.1c1.562.17 5.22.961 7.365 1.594 4.123 1.217 7.424 2.613 14.233 6.017 7.412 3.706 11.849 5.652 15.215 6.673l1.388.421v7.45l-1.088-.1c-4.74-.437-8.116-1.612-14.062-4.897-3.052-1.686-4.713-2.508-6.45-3.191-1.91-.751-4.669-1.472-4.87-1.272-.09.09-.144.965-.133 2.135.015 1.614.09 2.26.41 3.481.531 2.03 1.296 3.961 2.495 6.298.55 1.074 1.781 3.471 2.735 5.327 1.81 3.523 2.588 5.405 3.228 7.8.328 1.23.38 1.743.383 3.75.003 1.924-.053 2.529-.32 3.504-.438 1.594-1.255 3.461-1.53 3.497-.123.016-.426-.043-.673-.132zm317.297-.039c-1.236-.34-2.124-.863-3.05-1.796-1.357-1.364-2.278-3.358-2.91-6.3l-.258-1.196-1.356-.55c-.745-.301-3.103-1.171-5.24-1.932-9.586-3.415-13.204-5.253-16.387-8.326-1.778-1.716-2.682-2.917-3.618-4.805-1.129-2.277-1.95-5.571-1.952-7.833v-.783l4.312 2.14c8.382 4.162 16.958 7.663 27.457 11.21 4.722 1.596 4.28 1.247 4.969 3.924.552 2.147.729 4.116.834 9.267.046 2.27.17 4.817.276 5.663l.192 1.537-1.283-.013c-.705-.007-1.599-.1-1.985-.207zm-138.194-6.279c-.126-.192-.333-.697-.459-1.122-.257-.867-.622-1.155-1.292-1.021l-.437.087.407-.694c.844-1.44.753-2.72-.459-6.465-1.022-3.16-1.2-4.073-1.102-5.653.105-1.676.612-2.845 1.295-2.981.659-.132 1.91.135 2.641.564 2.11 1.236 3.324 4.042 3.486 8.052.153 3.795-.757 7.58-2.194 9.117-.567.607-1.526.666-1.886.116zm-12.978-.034c0-.151.265-1.629.59-3.283.81-4.142.96-5.542.87-8.146-.106-3.025-.662-4.85-2.061-6.77l-.48-.657-2.272.081c-2.492.089-3.46.25-9.247 1.536-5.175 1.15-6.784 1.42-9.075 1.52-2.263.097-3.595-.12-5.133-.841-1.23-.576-2.422-1.782-3.04-3.078-.461-.965-1.034-3.147-.87-3.311.048-.047 1.156-.149 2.464-.226 5.899-.35 9.609-1.086 20.61-4.092 9.48-2.591 13.577-3.35 19.644-3.635 1.812-.086 5.896.1 7.387.335l.563.089v-8.598l-.544-.483c-1.908-1.695-5.086-3.493-7.732-4.374-8.223-2.74-18.592-1.423-30.657 3.894-4.646 2.047-6.156 3.025-7.934 5.138-1.982 2.356-3.338 5.038-5.63 11.135a278.14 278.14 0 0 1-2.032 5.27c-1.43 3.503-3.115 6.361-4.83 8.192l-.877.938h-5.314v-.445c0-.724-.42-1.75-1.213-2.964-.409-.627-.783-1.297-.831-1.488-.067-.268.207-.792 1.183-2.263.699-1.054 1.44-2.22 1.649-2.59 1.31-2.34 1.209-4.92-.292-7.395-.631-1.042-.6-1.55.154-2.538.621-.815 1.647-1.337 3.844-1.957 1.713-.483 1.72-.488 1.84-1.01.168-.732.018-2.298-.429-4.5-.403-1.988-.377-2.69.146-3.943l.218-.52 2.228-.068c1.909-.06 2.357-.121 3.128-.432l.9-.363.088-2.55c.077-2.234.137-2.695.489-3.72.432-1.26 1.002-2.468 1.492-3.163l.306-.434 1.513.087c.831.048 2.49.237 3.687.422 2.557.393 5.566.463 6.631.153 1.309-.38 2.473-1.746 2.75-3.229.099-.521.14-.56.5-.471.217.053 1.913.135 3.769.18 2.609.066 4.532.009 8.475-.25 10.74-.705 15.941-.08 21.075 2.532 1.044.532 1.139.62 1.321 1.233.91 3.06 1.705 4.233 5.433 8.014l2.96 3.004.114 2.696c.408 9.667-.89 14.57-4.466 16.884l-.863.558-.77-.292c-1.595-.606-3.49-.776-8.493-.761-5.366.015-5.023-.068-6.063 1.468-1.196 1.763-1.33 4.905-.428 9.965.258 1.443.556 3.249.664 4.012l.194 1.387-.764.35c-.525.24-1.21.809-2.19 1.814-1.61 1.654-2.228 2.036-3.476 2.149-.775.07-.873.048-.873-.196zM518.51 266.39c-.825-.589-3.93-2.834-6.9-4.99-10.776-7.819-14.544-10.233-20.888-13.383l-3.187-1.582v-8.402l1.462.087c2.819.168 4.703.9 9.072 3.52 3.79 2.273 5.701 2.965 8.666 3.137 1.385.08 4.301-.126 4.868-.344.12-.046.317.246.536.798.504 1.266 2.038 4.296 3.441 6.795 2.73 4.863 3.831 7.7 4.425 11.4.238 1.484.313 4.056.117 4.043-.062-.004-.787-.49-1.612-1.079zm-187.575-15.712c-.867-.15-1.636-.48-2.063-.89-.273-.261-.337-.487-.337-1.18 0-.737.084-.993.6-1.832.476-.774.6-1.12.6-1.68 0-.69.012-.708.533-.806.81-.152 1.478.013 2.432.602.673.415 1.024.534 1.575.534h.71l-.001 2.138v2.137l-.487.322c-.893.59-2.367.86-3.561.655zm-100.725-5.99c-6.327-2.324-10.33-4.549-22.409-12.453-7.895-5.167-13.122-7.986-18.358-9.902l-.417-.152.297-.582c.163-.32.373-1.046.467-1.614.41-2.475.608-3.304.874-3.657.254-.336.387-.375 1.24-.363 2.128.029 5.73 1.075 8.456 2.457 2.139 1.084 3.665 2.086 7.425 4.879 4.05 3.008 5.994 4.275 8.175 5.33 1.766.853 4.152 1.702 5.28 1.879l.57.09.339-.844c1.005-2.502 1.382-5.288 1.112-8.223-.237-2.577-.729-4.794-2.204-9.935-1.49-5.195-1.913-7.242-1.922-9.296-.007-1.715.202-2.762.813-4.063.43-.917 1.553-2.462 1.788-2.462.07 0 .576.523 1.126 1.162 5.177 6.023 7.94 16.378 8.913 33.413.224 3.928.49 12.4.433 13.826l-.048 1.227-1.95-.716zm107.376.532c-.863-.282-1.551-.802-1.551-1.172 0-.17.236-.832.525-1.472.324-.717.525-1.396.525-1.774 0-.58.027-.617.526-.71 2.012-.378 3.3.909 3.619 3.614l.089.755-.77.419c-.917.499-2.072.631-2.963.34zm28.899-2.694c-3.31-1.114-4.476-1.731-5.887-3.115-.64-.627-1.163-1.215-1.163-1.306 0-.091.32-.353.711-.583.955-.56 1.887-.533 3.939.112 1.354.425 1.801.496 3.187.506l1.613.011v2.588c0 1.423-.017 2.584-.038 2.579-.021-.005-1.084-.36-2.363-.792zm-23-.35c-.055-.055-.1-.578-.097-1.162 0-1.324.327-2.084 1.206-2.836 2.219-1.899 5.472-.445 5.456 2.44 0 .458-.053 1.02-.113 1.246l-.108.412h-3.122c-1.718 0-3.168-.045-3.223-.1zm11.618-1.09c-.982-1.141-1.51-2.073-1.515-2.678-.01-.495.488-1.378 1.095-1.96.498-.479.551-.495 1.058-.328.637.21 1.294.94 1.294 1.435 0 .196-.174.905-.386 1.576-.212.671-.431 1.636-.487 2.144l-.102.923-.957-1.112zm180.996-1.331c-.058-.223-.31-.345-1.033-.5l-.956-.206-.257-2.099a280.922 280.922 0 0 0-.86-6.074c-.992-6.534-1.104-7.633-1.107-10.875 0-3.117.172-4.671.812-7.178.166-.65.281-1.202.256-1.227-.105-.105-1.702.552-2.347.967-2.22 1.426-3.726 4.386-4.743 9.326l-.266 1.287-1.203.722c-3.001 1.798-6.137 4.655-7.74 7.051-.926 1.385-1.811 3.178-2.318 4.696-.2.602-.403 1.132-.45 1.178-.045.046-.543-.067-1.105-.252-3.779-1.243-5.583-3.367-4.994-5.877.42-1.782 1.418-3.492 4.494-7.693 3.521-4.81 4.565-6.821 4.779-9.21l.099-1.11.9-.247c1.412-.388 2.738-1.181 3.896-2.333 1.248-1.24 2.333-2.806 4.42-6.375 3.35-5.734 5.023-7.32 7.876-7.47 1.068-.056 1.39-.007 2.514.38.709.244 1.589.62 1.955.835l.667.39.098 1.713c.11 1.934.44 4.487 1.217 9.402.97 6.148 1.256 10.707.93 14.813l-.122 1.537h1.038c1.885 0 3.559-.814 5.336-2.597.509-.51 1.844-2.08 2.967-3.487 1.123-1.408 2.513-3.037 3.087-3.62 2.657-2.694 5.287-3.966 8.275-4.003l1.446-.018v7.302l-1.575.707c-4.012 1.802-6.561 3.884-12.19 9.958-5.18 5.589-7.642 7.669-11.135 9.405-2.173 1.079-2.554 1.191-2.661.782zm-271.058-14.279c-.477-.061-.89-.137-.916-.168-.027-.031-.262-.785-.522-1.676-.968-3.313-2.116-5.884-5.46-12.225-1.319-2.499-2.829-5.49-3.356-6.646-1.276-2.799-2.498-6.482-3.005-9.06a96.362 96.362 0 0 0-.435-2.141c-.012-.023-.61-.11-1.328-.19-2.431-.277-4.48.173-7.36 1.616-1.975.99-3.366 1.479-4.816 1.691-1.465.214-2.252.162-2.185-.146.17-.773.167-1.624-.008-1.955-.109-.206-.534-.556-.944-.779-1.045-.566-1.449-1.072-1.392-1.748.05-.605-.506-.25 8.67-5.54 9.854-5.68 17.074-8.73 24.552-10.367 2.93-.641 2.805-.66 3.185.464.37 1.098.395 2 .09 3.315-.123.53-.275 1.428-.338 1.997l-.114 1.033-1.125.112c-3.728.37-7.067 2.133-9.586 5.06-.503.583-.914 1.15-.914 1.257 0 .107.239 1.067.53 2.133 1.042 3.806 2.632 7.305 6.638 14.613 3.28 5.982 4.7 9.157 5.795 12.94.794 2.748.81 2.954.27 3.737-.58.844-1.642 1.82-2.4 2.207-.488.249-2.297.666-2.583.596a29.71 29.71 0 0 0-.943-.13zm228.044-.774c-2.03-.129-4.266-.59-6.525-1.344-2.151-.717-5.174-2.067-5.336-2.382-.064-.123-.264-.712-.445-1.308-.441-1.451-1.418-2.896-3.495-5.167-3.797-4.154-4.471-5.427-4.91-9.272-.678-5.948 1.704-12.808 6.16-17.737 3.418-3.783 7.077-6.183 10.876-7.135 3.12-.782 4.829-1.001 7.725-.99 2.116.008 2.93.076 4.2.345 7.232 1.538 12.224 6.818 13.928 14.734 1.632 7.579-.417 16.647-5.1 22.579-4.383 5.55-10.098 8.119-17.078 7.677zm6.018-10.22c5.28-1.383 9.034-4.963 10.352-9.87.494-1.84.496-5.383 0-7.109-1.28-4.48-4.503-7.364-9.762-8.73-2.002-.52-4.933-.635-7.077-.276-5.27.88-9.2 3.886-10.937 8.362-.719 1.853-.964 3.374-.963 5.967 0 3.088.226 4.311 1.004 5.457 2.237 3.294 5.98 5.705 10.062 6.48 1.753.334 5.522.189 7.317-.281zm-205.436.025-2.853-8.05c-6.62-18.672-8.796-25.7-10.277-33.193a301.808 301.808 0 0 0-.528-2.632c-.065-.293.052-.348 1.39-.656 1.95-.45 4.589-1.3 8.136-2.623 6.696-2.498 10.407-3.374 14.287-3.376h1.613v.528c0 .29.25 1.15.554 1.912.455 1.134.557 1.58.563 2.464 0 .594-.063 1.151-.15 1.238-.087.087-.762.336-1.5.553-.738.217-3.217 1.062-5.509 1.878-4.16 1.48-7.707 2.498-9.887 2.836l-1.154.179-.102.812c-.116.926 0 1.847.3 2.43.114.22.693.872 1.288 1.448 1.218 1.179 1.793 2.201 1.795 3.194v.648l1.613-.094c2.246-.13 4.096-.343 6.679-.765 3.49-.57 5.486-.698 8.02-.512 1.218.089 2.331.197 2.476.241.236.072.262.324.259 2.507-.01 3.575-.267 3.98-3.155 4.872-2.307.712-2.807 1.077-3.164 2.305l-.203.699-.964-.587c-1.233-.75-1.972-.781-3.324-.142-.517.245-1.393.561-1.946.704l-1.007.26-.099 1.283c-.117 1.511.116 4.267.458 5.42.537 1.811 1.272 2.75 2.641 3.372.855.388 1.093.427 2.592.423 1.879-.005 2.708-.157 7.677-1.414 4.397-1.112 6.336-1.406 8.523-1.295 1.593.081 3.117.385 3.412.68.198.198-.225 1.584-.849 2.782-2.008 3.853-6.012 6.225-12.797 7.584-1.22.244-3.701.65-5.516.902-3.573.497-8.152 1.178-8.81 1.31-.272.053-.435.012-.483-.125zm160.932-.69c-.171-1.37.05-6.8.377-9.27.678-5.118 1.808-9.75 4.883-20.02 2.282-7.62 3.273-11.24 3.916-14.288l.435-2.063.5-.094c.777-.146 2.073.063 2.857.46.393.2 1.236.806 1.875 1.35.64.542 1.36 1.09 1.602 1.214.243.126.44.25.44.278 0 .027-.396.886-.881 1.908-2.266 4.777-3.522 9.846-5.494 22.184-.548 3.424-1.229 7.463-1.514 8.976-.526 2.797-1.754 7.826-2.276 9.324l-.288.825-3.162.04-3.162.041-.108-.865zm-15.89-3.579c-3.804-.59-6.754-1.361-13.155-3.443-2.417-.787-5.407-1.707-6.644-2.045-1.238-.338-2.293-.682-2.346-.763-.252-.392-.466-4.245-.384-6.924.2-6.57 1.403-11.461 5.818-23.672 1.874-5.184 3.164-9.067 3.741-11.266.392-1.49.353-1.457 2.105-1.826 2.585-.543 5.375-.419 8.466.378 2.295.592 4.39 1.423 8.4 3.333 1.897.904 4.209 1.986 5.137 2.403l1.688.76v2.102c0 2.432-.184 3.702-.657 4.535-.321.565-.367.59-1.043.567-1.853-.065-4.684-.889-9.55-2.782-4.064-1.58-6.352-2.25-7.775-2.275-1.026-.017-1.124.01-1.457.396-.49.568-.642 1.23-.804 3.495-.146 2.033-.295 2.638-.774 3.15-.286.306-.285.315.135.977.596.94 1.712 1.873 2.945 2.463 1.052.503 1.685.698 6.08 1.876 2.904.778 4.516 1.515 5.64 2.576l.844.798-.07.978c-.227 3.184-2.723 4.82-6.631 4.348-2.547-.307-4.412-.83-7.862-2.204l-2.454-.977-.67.653c-.91.885-1.57 2.05-2.619 4.62l-.885 2.166.716.73c1.486 1.52 4.021 2.882 7.99 4.296 7.093 2.526 9.05 3.453 10.913 5.167.575.53.637.654.634 1.28 0 .944-.285 1.245-1.811 1.944-.71.324-1.334.704-1.388.844-.054.14-.098.553-.098.918 0 .776.042.768-2.175.424zm-106.35-7.383c-.412-.143-1.174-.55-1.693-.905-.52-.354-1.144-.713-1.388-.798-.244-.085-.443-.207-.443-.27 0-.063.467-1.086 1.039-2.273 2.152-4.468 3.526-8.556 4.306-12.808.4-2.174.399-7.857 0-9.675-.826-3.764-2.392-6.677-4.963-9.232-1.34-1.332-3.621-2.988-5.086-3.692l-.73-.35.08-.879c.107-1.193.822-2.609 1.722-3.41.796-.71 2.374-1.496 3.682-1.837l.874-.227 1.304 1.301c.717.716 2.111 2.314 3.098 3.551 2.147 2.692 3.558 4.126 5.011 5.092.594.395 1.103.693 1.133.663.029-.03.563-1.594 1.184-3.476 2.04-6.17 3.393-8.35 5.914-9.525 1.164-.542 3.066-.563 4.57-.05l1.012.346v.793c0 2.135-.767 4.844-2.547 9-1.428 3.335-1.89 4.593-2.257 6.157-.583 2.484-.523 4.953.176 7.251.386 1.268 1.129 2.051 4.328 4.562a139.803 139.803 0 0 1 3.732 3.03c3.883 3.33 5.667 6.673 6.098 11.43.12 1.32.088 1.338-1.942 1.111-4.016-.447-5.99-1.77-10.23-6.853-2.838-3.402-4.382-4.647-6.79-5.475-.45-.154-.897-.28-.996-.28-.306 0-.8 1.54-2.024 6.317-1.243 4.847-1.695 6.204-2.626 7.877-1.012 1.816-3.356 3.816-4.455 3.8-.189-.002-.68-.122-1.093-.266zm43.426-4.06c-1.168-.25-1.712-.836-2.644-2.843-.626-1.347-1.359-2.276-1.797-2.276-.272 0-.264-.208.029-.775.361-.7.924-3.068 1.177-4.96.397-2.963.53-5.42.685-12.64.254-11.849.491-16.764.882-18.3.106-.415.16-.446.704-.403 1.097.087 3.407.782 4.626 1.39 3.1 1.55 5.07 3.63 8.935 9.438 2.339 3.515 3.396 4.871 4.976 6.385 1.346 1.29 3.557 2.765 4.145 2.765.234 0 .66-.305 1.251-.895 1.534-1.534 2.313-3.732 2.98-8.405.899-6.287 1.467-8.117 3.062-9.863 1.163-1.273 3.181-2.095 4.814-1.96l.6.048.253 1.2c1.113 5.263.428 10.238-2.573 18.675-2.738 7.699-3.566 10.639-3.973 14.116l-.098.84-1.304.345c-.718.19-1.744.465-2.28.613-.953.263-3.037.378-3.516.194-.132-.05-.68-.957-1.217-2.013-1.734-3.41-3.781-6.194-7.027-9.555-1.638-1.697-5.498-5.3-5.795-5.411-.205-.077-.85 2.191-1.036 3.646-.116.905-.158 3.8-.128 8.775.047 7.822.023 8.183-.655 10-.271.73-.326.782-.92.882-.347.058-1.02.3-1.495.54-.94.472-1.837.623-2.661.446z" transform="translate(-27.573 -131.746)"/></svg>